<!-- Generated by IcoMoon.io -->
<svg version="1.1" xmlns="http://www.w3.org/2000/svg" width="32" height="32" viewBox="0 0 32 32">
<title>banji</title>
<path fill="#d5e9e8" d="M5.818 8.727h20.364c1.6 0 2.909 1.309 2.909 2.909v11.636c0 1.6-1.309 2.909-2.909 2.909h-3.055l0.145-2.909h-7.273l-0.873 2.909h-9.309c-1.6 0-2.909-1.309-2.909-2.909v-11.636c0-1.6 1.309-2.909 2.909-2.909z"></path>
<path fill="#d5e9e8" d="M7.273 1.455h4.364v17.455h-4.364z"></path>
<path fill="#76bf35" d="M1.455 24.727h29.091v5.818h-29.091z"></path>
<path fill="#ff9a2e" d="M10.182 1.455h16l-16 13.091z"></path>
<path fill="#303646" d="M10.909 1.455h15.273l-8.889 7.273h8.889c1.6 0 2.909 1.309 2.909 2.909v11.636c0 0.529-0.143 1.026-0.392 1.455h1.847v5.818h-29.091v-5.818h1.847c-0.249-0.429-0.392-0.926-0.392-1.455v-11.636c0-1.6 1.309-2.909 2.909-2.909h1.455v-7.273h3.636zM15.515 10.182l-3.879 3.174v5.554h-4.364v-8.727h-1.455c-0.797 0-1.455 0.658-1.455 1.455v11.636c0 0.797 0.658 1.455 1.455 1.455h8.227l0.873-2.909h9.884l-0.145 2.909h1.525c0.797 0 1.455-0.658 1.455-1.455v-11.636c0-0.797-0.658-1.455-1.455-1.455h-10.667zM15.564 24.727h7.636l0.073-1.455h-1.384l-0.069-0.073-0.004 0.073h-5.816l-0.436 1.455zM8.727 17.455h1.455v-14.545h-1.455v14.545zM2.909 26.182v2.909h26.182v-2.909h-26.182zM22.107 2.909h-10.471v8.567l10.471-8.567z"></path>
</svg>
