<!-- Generated by IcoMoon.io -->
<svg version="1.1" xmlns="http://www.w3.org/2000/svg" width="32" height="32" viewBox="0 0 32 32">
<title>banlizhongxin</title>
<path fill="#d5e9e8" d="M4.403 1.455h10.614l8.256 7.855v15.418c0 1.6-1.327 2.909-2.948 2.909h-15.921c-1.622 0-2.948-1.309-2.948-2.909v-20.364c0-1.6 1.327-2.909 2.948-2.909z"></path>
<path fill="#ffc83b" d="M14.545 1.455l8.727 8.727h-8.727z"></path>
<path fill="#ffc83b" d="M30.545 10.182l-20.364 20.364h20.364z"></path>
<path fill="#d5e9e8" d="M27.636 17.455l-10.182 10.182h10.182z"></path>
<path fill="#303646" d="M21.818 18.909v-8.727h-7.273v-7.168l-0.11-0.104h-10.033c-0.823 0-1.494 0.662-1.494 1.455v20.364c0 0.792 0.671 1.455 1.494 1.455h10.143l7.273-7.273zM23.273 17.455l7.273-7.273v20.364h-20.364l2.909-2.909h-8.688c-1.622 0-2.948-1.309-2.948-2.909v-20.364c0-1.6 1.327-2.909 2.948-2.909h10.614l8.256 7.855v8.145zM16 8.727h3.761l-3.761-3.761v3.761zM5.818 8.727v-1.455h8.145v1.455h-8.145zM5.818 13.091v-1.455h6.109v1.455h-6.109zM5.818 17.455v-1.455h10.182v1.455h-10.182zM5.818 21.818v-1.455h10.182v1.455h-10.182zM13.693 29.091h15.398v-15.398l-15.398 15.398zM27.636 17.455v10.182h-10.182l10.182-10.182zM20.966 26.182h5.216v-5.216l-5.216 5.216z"></path>
</svg>
