<!-- Generated by IcoMoon.io -->
<svg version="1.1" xmlns="http://www.w3.org/2000/svg" width="32" height="32" viewBox="0 0 32 32">
<title>baobiao</title>
<path fill="#6fbb54" d="M5.818 5.818h20.364c1.6 0 2.909 1.309 2.909 2.909v16c0 1.6-1.309 2.909-2.909 2.909h-20.364c-1.6 0-2.909-1.309-2.909-2.909v-16c0-1.6 1.309-2.909 2.909-2.909z"></path>
<path fill="#d5e9e8" d="M8.727 8.727h14.545c1.6 0 2.909 1.309 2.909 2.909v10.182c0 1.6-1.309 2.909-2.909 2.909h-14.545c-1.6 0-2.909-1.309-2.909-2.909v-10.182c0-1.6 1.309-2.909 2.909-2.909z"></path>
<path fill="#ffc83b" d="M5.818 26.182l5.527-5.673 3.345 4.655 11.345-11.636 4.364 4.218v-13.382l-12.509 0.291 3.782 5.673-6.691 5.964-4.364-4.218-9.164 9.745z"></path>
<path fill="#303646" d="M18.667 5.818l-0.776-1.164 12.509-0.291v13.382l-1.309-1.265v8.247c0 1.6-1.309 2.909-2.909 2.909h-20.364c-1.6 0-2.909-1.309-2.909-2.909v-1.455l-1.455-1.455 1.455-1.547v-11.544c0-1.6 1.309-2.909 2.909-2.909h12.849zM19.636 7.273h-13.818c-0.797 0-1.455 0.658-1.455 1.455v9.997l1.455-1.547v-5.541c0-1.6 1.309-2.909 2.909-2.909h11.879l-0.97-1.455zM27.636 15.074l-1.455-1.406v8.15c0 1.6-1.309 2.909-2.909 2.909h-8.156l-0.425 0.436-0.314-0.436h-5.65c-0.437 0-0.853-0.098-1.226-0.273l-1.683 1.727-1.455-1.455c0 0.797 0.658 1.455 1.455 1.455h20.364c0.797 0 1.455-0.658 1.455-1.455v-9.653zM21.576 10.182h-12.848c-0.797 0-1.455 0.658-1.455 1.455v3.994l3.345-3.558 4.364 4.218 6.691-5.964-0.097-0.145zM24.727 14.87l-8.193 8.403h6.738c0.797 0 1.455-0.658 1.455-1.455v-6.948zM13.332 23.273l-1.124-1.564 0.18-0.184-0.33-0.025-0.712-0.99-0.851 0.874-0.33-0.025 0.15 0.209-1.66 1.704c0.024 0.001 0.048 0.002 0.073 0.002h4.605zM5.805 24.111l5.709-5.86 3.346 4.655 11.146-11.432 2.939 2.841v-8.464l-8.378 0.195 3.017 4.525-8.642 7.703-4.274-4.132-7.187 7.643 2.324 2.324z"></path>
</svg>
