<!-- Generated by IcoMoon.io -->
<svg version="1.1" xmlns="http://www.w3.org/2000/svg" width="32" height="32" viewBox="0 0 32 32">
<title>caiwu</title>
<path fill="#d5e9e8" d="M2.909 8.727h26.182v21.818h-26.182z"></path>
<path fill="#ecbd4a" d="M23.273 4.364h3.055c1.455 0 2.764 1.309 2.764 2.909s0 2.909 0 2.909h-26.182c0 0 0-1.309 0-2.909s1.164-2.909 2.764-2.909h3.055v-2.909h4.364v2.909h5.818v-2.909h4.364v2.909z"></path>
<path fill="#303646" d="M2.909 8.727h26.182v21.818h-26.182v-21.818zM4.364 10.182v18.909h23.273v-18.909h-23.273z"></path>
<path fill="#303646" d="M14.545 18.909h-4.364v-1.455h3.345l-4.073-5.818h2.182l3.636 5.304 3.636-5.304h2.182l-4.073 5.818h3.345v1.455h-4.364v1.455h4.364v1.455h-4.364v4.364h-1.455v-4.364h-4.364v-1.455h4.364v-1.455zM23.273 4.364h3.055c1.455 0 2.764 1.309 2.764 2.909v2.909h-26.182v-2.909c0-1.6 1.164-2.909 2.764-2.909h3.055v-2.909h4.364v2.909h5.818v-2.909h4.364v2.909zM23.273 5.818v1.455h-4.364v-1.455h-5.818v1.455h-4.364v-1.455h-2.909c-0.767 0-1.455 0.606-1.455 1.455v2.909h23.251v-2.909c0-0.784-0.666-1.455-1.348-1.455h-2.995zM10.182 5.818h1.455v-2.909h-1.455v2.909zM20.364 5.818h1.455v-2.909h-1.455v2.909z"></path>
</svg>
