<!-- Generated by IcoMoon.io -->
<svg version="1.1" xmlns="http://www.w3.org/2000/svg" width="32" height="32" viewBox="0 0 32 32">
<title>cikakaoqin</title>
<path fill="#d5e9e8" d="M4.364 5.818h23.273c1.6 0 2.909 1.309 2.909 2.909v16c0 1.6-1.309 2.909-2.909 2.909h-23.273c-1.6 0-2.909-1.309-2.909-2.909v-16c0-1.6 1.309-2.909 2.909-2.909z"></path>
<path fill="#ff716e" d="M1.455 10.182h29.091v5.818h-29.091z"></path>
<path fill="#7dcbf3" d="M26.182 17.455h2.909c1.6 0 2.909 1.309 2.909 2.909s-1.309 2.909-2.909 2.909h-2.909v2.909l-7.273-5.818 7.273-5.818v2.909z"></path>
<path fill="#303646" d="M29.091 17.455v-1.455h-2.909v1.455h2.909zM29.091 23.273h-2.909v2.909l-7.273-5.818 5.455-4.364h-21.455v8.727c0 0.797 0.658 1.455 1.455 1.455h23.273c0.797 0 1.455-0.658 1.455-1.455v-1.455zM30.545 17.847c0.868 0.505 1.455 1.446 1.455 2.517s-0.587 2.012-1.455 2.517v1.847c0 1.6-1.309 2.909-2.909 2.909h-23.273c-1.6 0-2.909-1.309-2.909-2.909v-16c0-1.6 1.309-2.909 2.909-2.909h23.273c1.6 0 2.909 1.309 2.909 2.909v9.12zM29.091 10.182v-1.455c0-0.797-0.658-1.455-1.455-1.455h-23.273c-0.797 0-1.455 0.658-1.455 1.455v1.455h26.182zM2.909 11.636v2.909h26.182v-2.909h-26.182zM4.364 18.909h5.818v1.455h-5.818v-1.455zM4.364 21.818h8.727v1.455h-8.727v-1.455zM24.727 21.818h4.364c0.797 0 1.455-0.658 1.455-1.455s-0.658-1.455-1.455-1.455h-4.364v-1.337l-3.49 2.792 3.49 2.792v-1.337z"></path>
</svg>
