<!-- Generated by IcoMoon.io -->
<svg version="1.1" xmlns="http://www.w3.org/2000/svg" width="32" height="32" viewBox="0 0 32 32">
<title>jiaociakucun</title>
<path fill="#d5e9e8" d="M26.182 18.909v8.727c0 1.6-1.309 2.909-2.909 2.909h-14.545c-1.6 0-2.909-1.309-2.909-2.909v-8.727h-3.384c-1.306-1.164-1.306-3.2 0-4.364l11.317-12.218c1.306-1.164 3.337-1.164 4.498 0l11.317 12.218c1.306 1.164 1.306 3.2 0 4.364h-3.384z"></path>
<path fill="#ffc83b" d="M8.727 20.364h5.818v5.818h-5.818z"></path>
<path fill="#ff716e" d="M8.727 11.636h5.818v5.818h-5.818z"></path>
<path fill="#7dcbf3" d="M17.455 20.364h5.818v5.818h-5.818z"></path>
<path fill="#303646" d="M26.182 18.909v8.727c0 1.6-1.309 2.909-2.909 2.909h-14.545c-1.6 0-2.909-1.309-2.909-2.909v-8.727h-3.384c-1.306-1.164-1.306-3.2 0-4.364l11.317-12.218c1.306-1.164 3.337-1.164 4.498 0l11.317 12.218c1.306 1.164 1.306 3.2 0 4.364h-3.384zM28.499 15.534l-11.28-12.179c-0.602-0.604-1.757-0.604-2.401-0.039l-11.417 12.316c-0.534 0.476-0.634 1.24-0.3 1.823h4.171v10.182c0 0.797 0.658 1.455 1.455 1.455h14.545c0.797 0 1.455-0.658 1.455-1.455v-10.182h4.17c0.332-0.586 0.217-1.366-0.398-1.921zM8.727 20.364h5.818v5.818h-5.818v-5.818zM8.727 11.636h5.818v5.818h-5.818v-5.818zM17.455 20.364h5.818v5.818h-5.818v-5.818zM10.182 21.818v2.909h2.909v-2.909h-2.909zM18.909 21.818v2.909h2.909v-2.909h-2.909zM10.182 13.091v2.909h2.909v-2.909h-2.909zM17.455 13.091h2.909v1.455h-2.909v-1.455zM17.455 16h5.818v1.455h-5.818v-1.455z"></path>
</svg>
