<!-- Generated by IcoMoon.io -->
<svg version="1.1" xmlns="http://www.w3.org/2000/svg" width="32" height="32" viewBox="0 0 32 32">
<title>jishangke</title>
<path fill="#7dcbf3" d="M5.818 4.364h20.364c1.6 0 2.909 1.309 2.909 2.909v20.364c0 1.6-1.309 2.909-2.909 2.909h-20.364c-1.6 0-2.909-1.309-2.909-2.909v-20.364c0-1.6 1.309-2.909 2.909-2.909z"></path>
<path fill="#303646" d="M5.818 4.364h20.364c1.6 0 2.909 1.309 2.909 2.909v20.364c0 1.6-1.309 2.909-2.909 2.909h-20.364c-1.6 0-2.909-1.309-2.909-2.909v-20.364c0-1.6 1.309-2.909 2.909-2.909zM5.818 5.818c-0.797 0-1.455 0.658-1.455 1.455v20.364c0 0.797 0.658 1.455 1.455 1.455h20.364c0.797 0 1.455-0.658 1.455-1.455v-20.364c0-0.797-0.658-1.455-1.455-1.455h-20.364z"></path>
<path fill="#d5e9e8" d="M11.695 5.818h-1.513c-0.873 0-1.455 0.582-1.455 1.455-1.6 0-2.909 1.309-2.909 2.909v14.545c0 1.6 1.309 2.909 2.909 2.909h14.545c1.6 0 2.909-1.309 2.909-2.909v-14.545c0-1.6-1.309-2.909-2.909-2.909 0-0.873-0.582-1.455-1.455-1.455h-1.513c0.039-0.235 0.059-0.478 0.059-0.727 0-2-1.309-3.636-2.909-3.636h-2.909c-1.6 0-2.909 1.636-2.909 3.636 0 0.249 0.020 0.492 0.059 0.727z"></path>
<path fill="#303646" d="M17.774 21.818h4.044v1.455h-2.27l0.089 0.073-4.364 1.382 0.242-1.455h-5.333v-1.455h5.576l0.242-1.455 1.774 1.455zM11.695 5.818c-0.039-0.235-0.059-0.478-0.059-0.727 0-2 1.309-3.636 2.909-3.636h2.909c1.6 0 2.909 1.636 2.909 3.636 0 0.249-0.020 0.492-0.059 0.727h1.513c0.873 0 1.455 0.582 1.455 1.455 1.6 0 2.909 1.309 2.909 2.909v14.545c0 1.6-1.309 2.909-2.909 2.909h-14.545c-1.6 0-2.909-1.309-2.909-2.909v-14.545c0-1.6 1.309-2.909 2.909-2.909 0-0.873 0.582-1.455 1.455-1.455h1.513zM23.273 8.727v1.455c0 0.873-0.582 1.455-1.455 1.455h-11.636c-0.873 0-1.455-0.582-1.455-1.455v-1.455c-0.797 0-1.455 0.658-1.455 1.455v14.545c0 0.797 0.658 1.455 1.455 1.455h14.545c0.797 0 1.455-0.658 1.455-1.455v-14.545c0-0.797-0.658-1.455-1.455-1.455zM10.182 7.273v2.909h11.636v-2.909h-11.636zM14.545 2.909c-0.797 0-1.455 0.987-1.455 2.182s0.658 2.182 1.455 2.182h2.909c0.797 0 1.455-0.987 1.455-2.182s-0.658-2.182-1.455-2.182h-2.909zM10.182 14.545v-1.455h10.182v1.455h-10.182zM10.182 18.909v-1.455h8.727v1.455h-8.727z"></path>
<path fill="#ffc83b" d="M23.273 8.727l5.818 4.364-9.455 10.182-3.636-2.909z"></path>
<path fill="#303646" d="M23.273 8.727l5.818 4.364-9.455 10.182-3.636-2.909 7.273-11.636zM23.667 10.841l-5.747 9.196 1.57 1.256 7.436-8.008-3.259-2.444z"></path>
</svg>
