<!-- Generated by IcoMoon.io -->
<svg version="1.1" xmlns="http://www.w3.org/2000/svg" width="32" height="32" viewBox="0 0 32 32">
<title>kechengbiao</title>
<path fill="#d5e9e8" d="M1.455 1.455h29.091v29.091h-29.091z"></path>
<path fill="#ff7d71" d="M1.455 1.455h29.091v7.273h-29.091z"></path>
<path fill="#ecbd4a" d="M1.455 7.273h7.273v23.273h-7.273z"></path>
<path fill="#303646" d="M2.909 2.909v26.182h26.182v-26.182h-26.182zM1.455 1.455h29.091v29.091h-29.091v-29.091zM1.455 1.455h29.091v7.273h-29.091v-7.273zM2.909 2.909v4.364h26.182v-4.364h-26.182zM2.909 8.727v20.364h4.364v-20.364h-4.364zM1.455 7.273h7.273v23.273h-7.273v-23.273zM1.455 16v-1.455h29.091v1.455h-29.091zM2.909 23.273v-1.455h27.636v1.455h-27.636z"></path>
</svg>
