<!-- Generated by IcoMoon.io -->
<svg version="1.1" xmlns="http://www.w3.org/2000/svg" width="32" height="32" viewBox="0 0 32 32">
<title>kecheng</title>
<path fill="#ff716e" d="M1.455 7.273h29.091v21.818h-29.091z"></path>
<path fill="#fff" d="M16.695 3.167c-1.948-1.101-7.318-3.46-12.331 0.472 0 0.867 0 23.997 0 23.997s6.571-6.222 11.636-1.684c0 0.98 0 1.595 0 1.684 0.216-0.373 0.438-0.71 0.667-1.012 0.269 0.302 0.532 0.639 0.788 1.012 0-0.094 0-0.795 0-1.903 4.352-4.156 10.182 1.903 10.182 1.903s0-23.113 0-23.985c-4.409-3.943-9.189-1.595-10.942-0.484z"></path>
<path fill="#d5e9e8" d="M14.545 21.818h4.364v5.818h-4.364z"></path>
<path fill="#ffc83b" d="M7.273 4.364h7.273v5.818h-7.273z"></path>
<path fill="#303646" d="M14.545 24.948c-4.783-2.424-10.182 2.689-10.182 2.689v-18.909h-1.455v18.909h26.182v-18.909h-1.455v18.909c0 0-4.637-4.819-8.727-2.914v2.914h-4.364v-2.689zM14.545 23.355v-1.537h1.455v-14.428c0-1.766 0-2.493 0-2.945-0.339-0.193-0.718-0.385-1.132-0.567-2.804-1.232-5.696-1.411-8.371 0.080-0.228 0.127-0.455 0.267-0.679 0.418 0 0.526 0 1.16 0 3.247v16.259c0 0.321 0 0.607 0 0.864 0.012-0.007 0.024-0.015 0.036-0.022 2.464-1.506 5.013-2.243 7.507-1.722 0.405 0.085 0.8 0.202 1.184 0.352zM18.909 23.156c0.354-0.121 0.719-0.209 1.093-0.264 2.071-0.308 4.156 0.389 6.18 1.712 0-0.219 0-0.457 0-0.719v-16.249c0-2.163 0-2.764 0-3.303-0.245-0.189-0.493-0.358-0.743-0.507-2.229-1.333-4.637-1.14-7.006 0.032-0.357 0.177-0.685 0.364-0.979 0.551 0 0.448 0 1.162 0 2.993v14.418h1.455v1.338zM27.636 7.273h2.909v21.818h-29.091v-21.818h2.909v-3.634c5.013-3.932 10.383-1.573 12.331-0.472 1.753-1.111 6.533-3.459 10.942 0.484v3.622zM18.909 5.818h5.818v1.455h-5.818v-1.455zM18.909 8.727h5.818v1.455h-5.818v-1.455zM7.273 13.091h7.273v1.309h-7.273v-1.309zM7.273 16h7.273v1.309h-7.273v-1.309zM18.909 13.091h5.818v1.455h-5.818v-1.455zM18.909 16h5.818v1.455h-5.818v-1.455zM16 26.182h1.455v-2.909h-1.455v2.909zM7.273 4.364h7.273v5.818h-7.273v-5.818zM8.727 8.727h4.364v-2.909h-4.364v2.909z"></path>
</svg>
