<!-- Generated by IcoMoon.io -->
<svg version="1.1" xmlns="http://www.w3.org/2000/svg" width="32" height="32" viewBox="0 0 32 32">
<title>paike</title>
<path fill="#d5e9e8" d="M7.273 1.455h20.364c1.6 0 2.909 1.309 2.909 2.909v7.273c0 1.6-1.309 2.909-2.909 2.909h-20.364c-1.6 0-2.909-1.309-2.909-2.909v-7.273c0-1.6 1.309-2.909 2.909-2.909zM4.364 17.455h20.364c1.6 0 2.909 1.309 2.909 2.909v7.273c0 1.6-1.309 2.909-2.909 2.909h-20.364c-1.6 0-2.909-1.309-2.909-2.909v-7.273c0-1.6 1.309-2.909 2.909-2.909z"></path>
<path fill="#76bf35" d="M7.241 1.455h7.337c1.582 0 2.877 1.309 2.877 2.909v7.273c0 1.6-1.295 2.909-2.877 2.909h-7.337c-1.582 0-2.877-1.309-2.877-2.909v-7.273c0-1.6 1.295-2.909 2.877-2.909z"></path>
<path fill="#ffc83b" d="M4.332 17.455h7.337c1.582 0 2.877 1.309 2.877 2.909v7.273c0 1.6-1.295 2.909-2.877 2.909h-7.337c-1.582 0-2.877-1.309-2.877-2.909v-7.273c0-1.6 1.295-2.909 2.877-2.909z"></path>
<path fill="#303646" d="M8.016 17.455h16.711c1.6 0 2.909 1.309 2.909 2.909v7.273c0 1.6-1.309 2.909-2.909 2.909h-20.396c-1.582 0-2.877-1.309-2.877-2.909v-7.273c0-1.6 1.295-2.909 2.877-2.909h3.684zM14.157 18.909c0.247 0.429 0.388 0.926 0.388 1.455v7.273c0 0.529-0.141 1.026-0.388 1.455h10.57c0.797 0 1.455-0.658 1.455-1.455v-7.273c0-0.797-0.658-1.455-1.455-1.455h-10.57zM10.925 1.455h16.711c1.6 0 2.909 1.309 2.909 2.909v7.273c0 1.6-1.309 2.909-2.909 2.909h-20.396c-1.582 0-2.877-1.309-2.877-2.909v-7.273c0-1.6 1.295-2.909 2.877-2.909h3.684zM17.067 2.909c0.247 0.429 0.388 0.926 0.388 1.455v7.273c0 0.529-0.141 1.026-0.388 1.455h10.57c0.797 0 1.455-0.658 1.455-1.455v-7.273c0-0.797-0.658-1.455-1.455-1.455h-10.57zM7.241 2.909c-0.775 0-1.423 0.654-1.423 1.455v7.273c0 0.8 0.647 1.455 1.423 1.455h7.337c0.775 0 1.423-0.654 1.423-1.455v-7.273c0-0.8-0.647-1.455-1.423-1.455h-7.337zM4.332 18.909c-0.775 0-1.423 0.654-1.423 1.455v7.273c0 0.8 0.647 1.455 1.423 1.455h7.337c0.775 0 1.423-0.654 1.423-1.455v-7.273c0-0.8-0.647-1.455-1.423-1.455h-7.337zM18.909 7.273v-1.455h5.818v1.455h-5.818zM18.909 10.182v-1.455h7.273v1.455h-7.273zM16 23.273v-1.455h5.818v1.455h-5.818zM16 26.182v-1.455h7.273v1.455h-7.273z"></path>
</svg>
