<!-- Generated by IcoMoon.io -->
<svg version="1.1" xmlns="http://www.w3.org/2000/svg" width="32" height="32" viewBox="0 0 32 32">
<title>xiaobaoxiu</title>
<path fill="#303646" d="M30.545 16l-7.273-13.091h-14.545l-7.273 13.091 7.273 13.091h14.545l7.273-13.091zM32.209 16l-8.081 14.545h-16.257l-8.081-14.545 8.081-14.545h16.257l8.081 14.545z"></path>
<path fill="#ff8057" d="M30.545 16l-7.273 13.091h-14.545l-7.273-13.091 7.273-13.091h14.545l7.273 13.091zM5.818 16l9.455 1.455 5.091 7.273-3.636-8.727 3.636-8.727-5.091 7.273-9.455 1.455z"></path>
<path fill="#ff6044" d="M23.273 2.909l-2.909 4.364 10.182 8.727z"></path>
<path fill="#f16557" d="M23.273 2.909h-14.545l11.636 4.364z"></path>
<path fill="#f6c982" d="M5.818 16h-4.364l7.273-13.091z"></path>
<path fill="#ea6b5c" d="M8.727 29.091l-2.909-13.091h-4.364z"></path>
<path fill="#ee4855" d="M8.727 29.091l11.636-4.364 2.909 4.364z"></path>
<path fill="#f6664f" d="M30.545 16l-10.182 8.727 2.909 4.364z"></path>
<path fill="#fb924d" d="M20.364 7.273l-3.636 8.727h13.818z"></path>
<path fill="#f8b260" d="M16.727 16l3.636 8.727 10.182-8.727z"></path>
<path fill="#f46f42" d="M20.364 24.727l-11.636 4.364 6.545-11.636z"></path>
<path fill="#f88871" d="M5.818 16l9.455 1.455-6.545 11.636z"></path>
<path fill="#fba346" d="M15.273 14.545l-9.455 1.455 2.909-13.091z"></path>
<path fill="#ff8057" d="M8.727 2.909l6.545 11.636 5.091-7.273z"></path>
</svg>
