<!-- Generated by IcoMoon.io -->
<svg version="1.1" xmlns="http://www.w3.org/2000/svg" width="32" height="32" viewBox="0 0 32 32">
<title>xiaobaojia</title>
<path fill="#d5e9e8" d="M26.717 27.606c2.205-0.251 3.829-2.042 3.829-4.334v-11.636l-14.545-8.727-14.545 8.727v11.636c0 2.473 1.891 4.364 4.364 4.364h16v2.909l4.899-2.939z"></path>
<path fill="#fff" d="M10.182 11.636h1.455c0.873 0 1.455 0.582 1.455 1.455v1.455c0 0.873-0.582 1.455-1.455 1.455h-1.455c-0.873 0-1.455-0.582-1.455-1.455v-1.455c0-0.873 0.582-1.455 1.455-1.455zM20.364 11.636h1.455c0.873 0 1.455 0.582 1.455 1.455v1.455c0 0.873-0.582 1.455-1.455 1.455h-1.455c-0.873 0-1.455-0.582-1.455-1.455v-1.455c0-0.873 0.582-1.455 1.455-1.455z"></path>
<path fill="#303646" d="M21.818 30.545v-2.909h-16c-2.473 0-4.364-1.891-4.364-4.364v-11.636l14.545-8.727 14.545 8.727v11.636c0 2.291-1.623 4.083-3.829 4.334l-4.899 2.939zM26.239 26.197l0.313-0.036c1.485-0.169 2.538-1.352 2.538-2.888v-10.813l-13.091-7.855-13.091 7.855v10.813c0 1.669 1.24 2.909 2.909 2.909h17.455v1.795l2.966-1.78zM10.182 17.455c0 2.603 2.304 4.364 5.818 4.364s5.818-1.76 5.818-4.364h1.455c0 3.636-3.2 5.818-7.273 5.818s-7.273-2.182-7.273-5.818h1.455zM10.182 11.636h1.455c0.873 0 1.455 0.582 1.455 1.455v1.455c0 0.873-0.582 1.455-1.455 1.455h-1.455c-0.873 0-1.455-0.582-1.455-1.455v-1.455c0-0.873 0.582-1.455 1.455-1.455zM20.364 11.636h1.455c0.873 0 1.455 0.582 1.455 1.455v1.455c0 0.873-0.582 1.455-1.455 1.455h-1.455c-0.873 0-1.455-0.582-1.455-1.455v-1.455c0-0.873 0.582-1.455 1.455-1.455zM20.364 13.091v1.455h1.455v-1.455h-1.455zM10.182 13.091v1.455h1.455v-1.455h-1.455z"></path>
</svg>
