<!-- Generated by IcoMoon.io -->
<svg version="1.1" xmlns="http://www.w3.org/2000/svg" width="32" height="32" viewBox="0 0 32 32">
<title>xiaoneitongzhi</title>
<path fill="#ff716e" d="M16 1.455c2.473 0 4.364 1.891 4.364 4.364s-1.891 4.364-4.364 4.364c-2.473 0-4.364-1.891-4.364-4.364s1.891-4.364 4.364-4.364z"></path>
<path fill="#303646" d="M16 1.455c2.473 0 4.364 1.891 4.364 4.364s-1.891 4.364-4.364 4.364c-2.473 0-4.364-1.891-4.364-4.364s1.891-4.364 4.364-4.364zM16 2.909c-1.669 0-2.909 1.24-2.909 2.909s1.24 2.909 2.909 2.909c1.669 0 2.909-1.24 2.909-2.909s-1.24-2.909-2.909-2.909z"></path>
<path fill="#ffc83b" d="M21.818 24.727c0 2.764-2.182 5.818-5.818 5.818s-5.818-2.909-5.818-5.818c1.164 0 10.473 0 11.636 0z"></path>
<path fill="#d5e9e8" d="M14.545 5.818h2.909c3.901 0 5.818 3.2 5.818 7.273v1.455c0 4.073 8.414 8.727 4.364 8.727h-23.273c-4.051 0 4.364-4.655 4.364-8.727v-1.455c0-4.073 1.768-7.273 5.818-7.273z"></path>
<path fill="#303646" d="M14.545 5.818h2.909c3.901 0 5.818 3.2 5.818 7.273v1.455c0 4.073 8.414 8.727 4.364 8.727h-23.273c-4.051 0 4.364-4.655 4.364-8.727v-1.455c0-4.073 1.768-7.273 5.818-7.273zM26.279 21.818c-0.293-0.308-1.066-1.12-1.345-1.424-1.364-1.485-2.241-2.684-2.734-3.949-0.249-0.638-0.382-1.271-0.382-1.9v-1.455c0-3.65-1.601-5.818-4.364-5.818h-2.909c-2.852 0-4.364 2.086-4.364 5.818v1.455c0 0.629-0.134 1.262-0.382 1.9-0.493 1.265-1.37 2.464-2.734 3.949-0.279 0.304-1.051 1.116-1.345 1.424h20.559zM21.818 24.727c0 2.764-2.182 5.818-5.818 5.818s-5.818-2.909-5.818-5.818h11.636zM19.636 26.182h-7.273c0 0.727 1.075 2.909 3.636 2.909 2.511 0 3.636-2.182 3.636-2.909z"></path>
</svg>
