<!-- Generated by IcoMoon.io -->
<svg version="1.1" xmlns="http://www.w3.org/2000/svg" width="32" height="32" viewBox="0 0 32 32">
<title>xiaoqu</title>
<path fill="#d5e9e8" d="M4.364 1.455h13.091c1.6 0 2.909 1.309 2.909 2.909v23.273c0 1.6-1.309 2.909-2.909 2.909h-13.091c-1.6 0-2.909-1.309-2.909-2.909v-23.273c0-1.6 1.309-2.909 2.909-2.909z"></path>
<path fill="#ffc83b" d="M8.727 21.818h4.364c0.873 0 1.455 0.582 1.455 1.455v5.818c0 0.873-0.582 1.455-1.455 1.455h-4.364c-0.873 0-1.455-0.582-1.455-1.455v-5.818c0-0.873 0.582-1.455 1.455-1.455zM21.818 10.182h5.818c1.6 0 2.909 1.309 2.909 2.909v14.545c0 1.6-1.309 2.909-2.909 2.909h-5.818c-1.6 0-2.909-1.309-2.909-2.909v-14.545c0-1.6 1.309-2.909 2.909-2.909z"></path>
<path fill="#fff" d="M7.273 7.273h1.455c0.873 0 1.455 0.582 1.455 1.455v1.455c0 0.873-0.582 1.455-1.455 1.455h-1.455c-0.873 0-1.455-0.582-1.455-1.455v-1.455c0-0.873 0.582-1.455 1.455-1.455zM13.091 7.273h1.455c0.873 0 1.455 0.582 1.455 1.455v1.455c0 0.873-0.582 1.455-1.455 1.455h-1.455c-0.873 0-1.455-0.582-1.455-1.455v-1.455c0-0.873 0.582-1.455 1.455-1.455zM7.273 14.545h1.455c0.873 0 1.455 0.582 1.455 1.455v1.455c0 0.873-0.582 1.455-1.455 1.455h-1.455c-0.873 0-1.455-0.582-1.455-1.455v-1.455c0-0.873 0.582-1.455 1.455-1.455zM13.091 14.545h1.455c0.873 0 1.455 0.582 1.455 1.455v1.455c0 0.873-0.582 1.455-1.455 1.455h-1.455c-0.873 0-1.455-0.582-1.455-1.455v-1.455c0-0.873 0.582-1.455 1.455-1.455zM24.727 14.545h1.455c0.873 0 1.455 0.582 1.455 1.455v1.455c0 0.873-0.582 1.455-1.455 1.455h-1.455c-0.873 0-1.455-0.582-1.455-1.455v-1.455c0-0.873 0.582-1.455 1.455-1.455zM24.727 21.818h1.455c0.873 0 1.455 0.582 1.455 1.455v1.455c0 0.873-0.582 1.455-1.455 1.455h-1.455c-0.873 0-1.455-0.582-1.455-1.455v-1.455c0-0.873 0.582-1.455 1.455-1.455z"></path>
<path fill="#303646" d="M20.364 10.574c0.429-0.249 0.926-0.392 1.455-0.392h5.818c1.6 0 2.909 1.309 2.909 2.909v14.545c0 1.6-1.309 2.909-2.909 2.909h-5.818c-0.866 0-1.648-0.384-2.182-0.99-0.534 0.606-1.315 0.99-2.182 0.99h-13.091c-1.6 0-2.909-1.309-2.909-2.909v-23.273c0-1.6 1.309-2.909 2.909-2.909h13.091c1.6 0 2.909 1.309 2.909 2.909v6.211zM14.545 29.091h2.909c0.797 0 1.455-0.658 1.455-1.455v-23.273c0-0.797-0.658-1.455-1.455-1.455h-13.091c-0.797 0-1.455 0.658-1.455 1.455v23.273c0 0.797 0.658 1.455 1.455 1.455h2.909v-5.818c0-0.873 0.582-1.455 1.455-1.455h4.364c0.873 0 1.455 0.582 1.455 1.455v5.818zM8.727 23.273v5.818h4.364v-5.818h-4.364zM21.818 11.636c-0.797 0-1.455 0.658-1.455 1.455v14.545c0 0.797 0.658 1.455 1.455 1.455h5.818c0.797 0 1.455-0.658 1.455-1.455v-14.545c0-0.797-0.658-1.455-1.455-1.455h-5.818zM7.273 7.273h1.455c0.873 0 1.455 0.582 1.455 1.455v1.455c0 0.873-0.582 1.455-1.455 1.455h-1.455c-0.873 0-1.455-0.582-1.455-1.455v-1.455c0-0.873 0.582-1.455 1.455-1.455zM13.091 7.273h1.455c0.873 0 1.455 0.582 1.455 1.455v1.455c0 0.873-0.582 1.455-1.455 1.455h-1.455c-0.873 0-1.455-0.582-1.455-1.455v-1.455c0-0.873 0.582-1.455 1.455-1.455zM7.273 14.545h1.455c0.873 0 1.455 0.582 1.455 1.455v1.455c0 0.873-0.582 1.455-1.455 1.455h-1.455c-0.873 0-1.455-0.582-1.455-1.455v-1.455c0-0.873 0.582-1.455 1.455-1.455zM13.091 14.545h1.455c0.873 0 1.455 0.582 1.455 1.455v1.455c0 0.873-0.582 1.455-1.455 1.455h-1.455c-0.873 0-1.455-0.582-1.455-1.455v-1.455c0-0.873 0.582-1.455 1.455-1.455zM24.727 14.545h1.455c0.873 0 1.455 0.582 1.455 1.455v1.455c0 0.873-0.582 1.455-1.455 1.455h-1.455c-0.873 0-1.455-0.582-1.455-1.455v-1.455c0-0.873 0.582-1.455 1.455-1.455zM24.727 21.818h1.455c0.873 0 1.455 0.582 1.455 1.455v1.455c0 0.873-0.582 1.455-1.455 1.455h-1.455c-0.873 0-1.455-0.582-1.455-1.455v-1.455c0-0.873 0.582-1.455 1.455-1.455zM7.273 8.727v1.455h1.455v-1.455h-1.455zM13.091 8.727v1.455h1.455v-1.455h-1.455zM7.273 16v1.455h1.455v-1.455h-1.455zM13.091 16v1.455h1.455v-1.455h-1.455zM24.727 16v1.455h1.455v-1.455h-1.455zM24.727 23.273v1.455h1.455v-1.455h-1.455z"></path>
</svg>
