<!-- Generated by IcoMoon.io -->
<svg version="1.1" xmlns="http://www.w3.org/2000/svg" width="32" height="32" viewBox="0 0 32 32">
<title>xueyuanmingce</title>
<path fill="#d5e9e8" d="M27.217 30.545h-17.078l-8.684-8.771v-17.104c0-1.754 1.447-3.216 3.184-3.216h22.723c1.737 0 3.184 1.462 3.184 3.216v22.805c-0.145 1.608-1.592 3.070-3.329 3.070z"></path>
<path fill="#7dccf3" d="M8.475 10.701c-0.738-0.666-1.202-1.629-1.202-2.701 0-2.008 1.628-3.636 3.636-3.636s3.636 1.628 3.636 3.636c0 1.072-0.464 2.036-1.202 2.701 2.409 1.073 4.111 3.692 4.111 6.753h-13.091c0-3.061 1.702-5.68 4.111-6.753zM10.182 30.545l-8.727-8.727h8.727v8.727z"></path>
<path fill="#ff7d71" d="M17.455 1.455h10.182v8.727l-5.091-2.909-5.091 2.909z"></path>
<path fill="#303646" d="M8.475 10.701c-0.738-0.666-1.202-1.629-1.202-2.701 0-2.008 1.628-3.636 3.636-3.636s3.636 1.628 3.636 3.636c0 1.072-0.464 2.036-1.202 2.701 2.409 1.073 4.111 3.692 4.111 6.753h-13.091c0-3.061 1.702-5.68 4.111-6.753zM27.636 2.933v7.249l-5.091-2.909-5.091 2.909v-7.273h-12.816c-0.93 0-1.73 0.807-1.73 1.762v16.505l0.636 0.642h6.637v6.704l0.563 0.569h16.471c0.925 0 1.797-0.828 1.874-1.615v-22.805c0-0.859-0.647-1.598-1.455-1.738zM5.818 26.182l-4.364-4.364h0.043l-0.043-0.044v-17.104c0-1.754 1.447-3.216 3.184-3.216h22.998c1.737 0 2.909 1.462 2.909 3.216v22.805c-0.145 1.608-1.592 3.070-3.329 3.070h-17.078l-4.32-4.364zM8.727 23.273h-3.761l3.761 3.761v-3.761zM26.182 2.909h-7.273v4.364l3.636-2.182 3.636 2.182v-4.364zM18.909 16v-1.455h5.818v1.455h-5.818zM18.909 20.364v-1.455h4.364v1.455h-4.364zM18.909 24.727v-1.455h7.273v1.455h-7.273zM10.909 10.182c1.205 0 2.182-0.977 2.182-2.182s-0.977-2.182-2.182-2.182c-1.205 0-2.182 0.977-2.182 2.182s0.977 2.182 2.182 2.182zM10.909 11.636c-2.345 0-4.362 1.836-4.931 4.364 0.849 0 1.354 0 2.91 0h1.532c3.025 0 3.628 0 5.419 0-0.569-2.527-2.586-4.364-4.931-4.364z"></path>
</svg>
