<!-- Generated by IcoMoon.io -->
<svg version="1.1" xmlns="http://www.w3.org/2000/svg" width="32" height="32" viewBox="0 0 32 32">
<title>yiduiyi</title>
<path fill="#3edcdd" d="M10.846 6.992l-2.733 15.501-3.182-0.561 2.105-11.937c-0.452 0.27-1.041 0.481-1.767 0.632s-1.38 0.209-1.959 0.175l0.478-2.712c1.881-0.207 3.561-0.691 5.042-1.453l2.017 0.356z"></path>
<path fill="#ecbd4a" d="M22.024 11.154l-5.621 10.825-2.845-0.502-1.56-12.091 2.236 0.394 1.262 9.084c0.095-0.358 1.555-3.055 4.38-8.090l2.149 0.379z"></path>
<path fill="#303646" d="M10.846 6.992l-2.017-0.356c-1.481 0.762-3.161 1.247-5.042 1.453l-0.478 2.712c0.579 0.035 1.233-0.023 1.959-0.175s1.316-0.362 1.767-0.632l-2.105 11.937 3.182 0.561 2.733-15.501zM3.222 12.254l-1.628-0.098 0.951-5.393 1.084-0.119c1.709-0.188 3.218-0.623 4.535-1.301l0.436-0.224 3.932 0.693-3.238 18.366-6.047-1.066 1.937-10.987c-0.7 0.122-1.354 0.166-1.961 0.13z"></path>
<path fill="#303646" d="M18.695 9.090l5.73 1.010-6.823 13.567-5.73-1.010-1.772-15.082 5.73 1.010 0.675 4.55 2.19-4.045zM22.024 11.154l-2.149-0.379-4.38 8.090-1.349-9.1-2.149-0.379 1.56 12.091 2.865 0.505 5.602-10.828z"></path>
<path fill="#3edcdd" d="M29.756 9.902l-2.733 15.501-3.182-0.561 2.105-11.937c-0.452 0.27-1.041 0.481-1.767 0.632s-1.38 0.209-1.959 0.175l0.478-2.712c1.881-0.207 3.561-0.691 5.042-1.453l2.017 0.356z"></path>
<path fill="#303646" d="M29.756 9.902l-2.017-0.356c-1.481 0.762-3.161 1.246-5.042 1.453l-0.478 2.712c0.579 0.035 1.233-0.023 1.959-0.175s1.316-0.362 1.767-0.632l-2.105 11.937 3.182 0.561 2.733-15.501zM22.131 15.164l-1.628-0.098 0.951-5.393 1.084-0.119c1.709-0.188 3.218-0.623 4.535-1.301l0.436-0.224 3.932 0.693-3.238 18.366-6.047-1.066 1.937-10.987c-0.7 0.122-1.354 0.166-1.961 0.13z"></path>
</svg>
