<!-- Generated by IcoMoon.io -->
<svg version="1.1" xmlns="http://www.w3.org/2000/svg" width="32" height="32" viewBox="0 0 32 32">
<title>yuangong</title>
<path fill="#d5e9e8" d="M4.364 17.455h2.103c0.502 0 0.968 0.258 1.233 0.684l6.624 10.599c0.144 0.231 0.221 0.498 0.221 0.771v0.31c0 0.402-0.326 0.727-0.727 0.727h-9.455c-0.803 0-1.455-0.651-1.455-1.455v-10.182c0-0.803 0.651-1.455 1.455-1.455z"></path>
<path fill="#d5e9e8" d="M27.636 17.455h-2.103c-0.502 0-0.968 0.258-1.233 0.684l-6.624 10.599c-0.144 0.231-0.221 0.498-0.221 0.771v0.31c0 0.402 0.326 0.727 0.727 0.727h9.455c0.803 0 1.455-0.651 1.455-1.455v-10.182c0-0.803-0.651-1.455-1.455-1.455z"></path>
<path fill="#ffc83b" d="M10.184 16c5.818 3.782 11.636 0 11.636 0l-5.818 14.545c0 0-5.964-13.527-5.818-14.545z"></path>
<path fill="#7dccf3" d="M16 16c-4.073 0-7.273-3.2-7.273-7.273s3.2-7.273 7.273-7.273c4.073 0 7.273 3.2 7.273 7.273s-3.2 7.273-7.273 7.273z"></path>
<path fill="#303646" d="M6.467 17.455c0.502 0 0.968 0.258 1.233 0.684l6.624 10.599c0.144 0.231 0.221 0.498 0.221 0.771v0.31c0 0.402-0.326 0.727-0.727 0.727h-9.455c-0.803 0-1.455-0.651-1.455-1.455v-10.182c0-0.803 0.651-1.455 1.455-1.455h2.103zM6.467 18.909h-2.103v10.182h8.467l-6.364-10.182zM25.533 17.455h2.103c0.803 0 1.455 0.651 1.455 1.455v10.182c0 0.803-0.651 1.455-1.455 1.455h-9.455c-0.402 0-0.727-0.326-0.727-0.727v-0.31c0-0.273 0.077-0.54 0.221-0.771l6.624-10.599c0.266-0.425 0.732-0.684 1.233-0.684zM25.533 18.909l-6.364 10.182h8.467v-10.182h-2.103zM10.184 16c5.818 3.782 11.636 0 11.636 0l-5.818 14.545c0 0-5.964-13.527-5.818-14.545zM14.208 22.681c0.112 0.268 0.112 0.268 0.225 0.536 0.484 1.153 0.996 2.352 1.513 3.552l3.237-8.093c-2.157 0.599-4.389 0.674-6.59 0.029 0.428 1.098 0.974 2.44 1.616 3.975zM16 16c-4.073 0-7.273-3.2-7.273-7.273s3.2-7.273 7.273-7.273c4.073 0 7.273 3.2 7.273 7.273s-3.2 7.273-7.273 7.273zM16 14.545c3.269 0 5.818-2.549 5.818-5.818s-2.549-5.818-5.818-5.818c-3.269 0-5.818 2.549-5.818 5.818s2.549 5.818 5.818 5.818z"></path>
</svg>
