<!-- Generated by IcoMoon.io -->
<svg version="1.1" xmlns="http://www.w3.org/2000/svg" width="32" height="32" viewBox="0 0 32 32">
<title>zixunben</title>
<path fill="#d5e9e8" d="M16 24.727h11.636c1.6 0 2.909-1.309 2.909-2.909v-16c0-1.6-1.309-2.909-2.909-2.909h-23.273c-1.6 0-2.909 1.309-2.909 2.909v16c0 1.6 1.309 2.909 2.909 2.909h3.491l4.073 5.818 4.073-5.818z"></path>
<path fill="#ff716e" d="M25.116 11.246c-0.151-0.363-0.366-0.688-0.64-0.963-0.53-0.534-1.225-0.828-1.958-0.828-0.835 0-1.617 0.38-2.156 1.046-0.54-0.666-1.322-1.046-2.156-1.046-0.731 0-1.427 0.296-1.959 0.834-0.275 0.278-0.491 0.603-0.641 0.967-0.156 0.378-0.234 0.778-0.23 1.19 0.007 0.893 0.391 1.726 1.053 2.287 0.030 0.025 0.058 0.050 0.087 0.076 0.145 0.13 0.565 0.514 1.097 1 0.911 0.833 2.044 1.869 2.508 2.281 0.068 0.059 0.154 0.093 0.242 0.093s0.176-0.033 0.242-0.093c0.336-0.299 1.030-0.934 1.767-1.607 0.723-0.66 1.47-1.344 1.907-1.736 0.677-0.564 1.067-1.406 1.070-2.311 0.001-0.414-0.078-0.814-0.234-1.19v0z"></path>
<path fill="#303646" d="M16 24.727l-4.073 5.818-4.073-5.818h-3.491c-1.6 0-2.909-1.309-2.909-2.909v-16c0-1.6 1.309-2.909 2.909-2.909h23.273c1.6 0 2.909 1.309 2.909 2.909v16c0 1.6-1.309 2.909-2.909 2.909h-11.636zM15.243 23.273h12.394c0.797 0 1.455-0.658 1.455-1.455v-16c0-0.797-0.658-1.455-1.455-1.455h-23.273c-0.797 0-1.455 0.658-1.455 1.455v16c0 0.797 0.658 1.455 1.455 1.455h4.248l3.315 4.736 3.315-4.736zM4.364 10.182v-1.455h5.818v1.455h-5.818zM4.364 14.545v-1.455h4.364v1.455h-4.364zM4.364 18.909v-1.455h7.273v1.455h-7.273zM25.161 9.693c-0.618-0.623-1.429-0.966-2.284-0.966-0.974 0-1.885 0.189-2.514 0.966-0.629-0.777-1.544-0.966-2.517-0.966-0.853 0-1.665 0.345-2.285 0.973-0.32 0.324-0.573 0.703-0.748 1.128-0.182 0.441-0.273 0.908-0.268 1.388 0.008 1.042 0.456 2.013 1.228 2.668 0.035 0.030 0.068 0.058 0.101 0.089 0.169 0.152 0.659 0.6 1.279 1.167 1.062 0.971 2.385 2.18 2.926 2.661 0.080 0.069 0.18 0.108 0.283 0.108 0.105 0 0.206-0.039 0.283-0.108 0.392-0.349 1.202-1.090 2.061-1.875 0.843-0.77 1.715-1.568 2.225-2.025 0.79-0.658 1.245-1.641 1.249-2.696 0.001-0.483-0.091-0.95-0.273-1.388-0.176-0.424-0.427-0.802-0.747-1.124zM22.545 10.182c0.549 0 1.107 0.136 1.507 0.53 0.209 0.206 0.376 0.451 0.493 0.728 0.12 0.286 0.181 0.591 0.181 0.906-0.001 0.349-4.364 4.381-4.364 4.381s-4.359-3.692-4.364-4.37c-0.002-0.314 0.058-0.619 0.178-0.905 0.118-0.279 0.285-0.525 0.495-0.733 0.403-0.399 0.963-0.537 1.508-0.537 0.644 0 1.964 1.455 2.182 1.455s1.536-1.455 2.182-1.455z"></path>
</svg>
