<svg xmlns="http://www.w3.org/2000/svg" width="22" height="22" viewBox="0 0 22 22">
  <g fill="none" fill-rule="evenodd">
    <path fill="#D5E9E8" d="M4,6 L18,6 C19.1,6 20,6.9 20,8 L20,16 C20,17.1 19.1,18 18,18 L15.9,18 L16,16 L11,16 L10.4,18 L4,18 C2.9,18 2,17.1 2,16 L2,8 C2,6.9 2.9,6 4,6 Z"/>
    <polygon fill="#D5E9E8" points="5 1 8 1 8 13 5 13"/>
    <polygon fill="#76BF35" points="1 17 21 17 21 21 1 21"/>
    <polygon fill="#FF9A2E" points="7 1 18 1 7 10"/>
    <path fill="#303646" fill-rule="nonzero" d="M7.5,1 L18,1 L11.8888889,6 L18,6 C19.1,6 20,6.9 20,8 L20,16 C20,16.3636152 19.9016575,16.7053766 19.7302565,17 L21,17 L21,21 L1,21 L1,17 L2.2697435,17 C2.09834251,16.7053766 2,16.3636152 2,16 L2,8 C2,6.9 2.9,6 4,6 L5,6 L5,1 L7.5,1 Z M10.6666667,7 L8,9.18181818 L8,13 L5,13 L5,7 L4,7 C3.45228475,7 3,7.45228475 3,8 L3,16 C3,16.5477153 3.45228475,17 4,17 L9.65596935,17 L10.2559693,15 L17.0512492,15 L16.9512492,17 L18,17 C18.5477153,17 19,16.5477153 19,16 L19,8 C19,7.45228475 18.5477153,7 18,7 L10.6666667,7 Z M10.7,17 L15.95,17 L15.9524969,16.9500624 L16,16 L15.0487508,16 L15.0012477,15.9500624 L14.9987508,16 L11,16 L10.7,17 Z M6,12 L7,12 L7,2 L6,2 L6,12 Z M2,18 L2,20 L20,20 L20,18 L2,18 Z M15.1985922,2 L8,2 L8,7.88975724 L15.1985922,2 Z"/>
  </g>
</svg>
