<svg xmlns="http://www.w3.org/2000/svg" width="22" height="22" viewBox="0 0 22 22">
  <g fill="none" fill-rule="evenodd">
    <path fill="#D5E9E8" d="M3.02702703,1 L10.3243243,1 L16,6.4 L16,17 C16,18.1 15.0878378,19 13.972973,19 L3.02702703,19 C1.91216216,19 1,18.1 1,17 L1,3 C1,1.9 1.91216216,1 3.02702703,1 Z"/>
    <polygon fill="#FFC83B" points="10 1 16 7 10 7"/>
    <polygon fill="#FFC83B" points="21 7 7 21 21 21"/>
    <polygon fill="#D5E9E8" points="19 12 12 19 19 19"/>
    <path fill="#303646" fill-rule="nonzero" d="M15,13 L15,7 L10,7 L10,2.07172431 L9.92461409,2 L3.02702703,2 C2.46146456,2 2,2.4553117 2,3 L2,17 C2,17.5446883 2.46146456,18 3.02702703,18 L10,18 L15,13 Z M16,12 L21,7 L21,21 L7,21 L9,19 L3.02702703,19 C1.91216216,19 1,18.1 1,17 L1,3 C1,1.9 1.91216216,1 3.02702703,1 L10.3243243,1 L16,6.4 L16,12 Z M11,6 L13.5857864,6 L11,3.41421356 L11,6 Z M4,6 L4,5 L9.6,5 L9.6,6 L4,6 Z M4,9 L4,8 L8.2,8 L8.2,9 L4,9 Z M4,12 L4,11 L11,11 L11,12 L4,12 Z M4,15 L4,14 L11,14 L11,15 L4,15 Z M9.41421356,20 L20,20 L20,9.41421356 L9.41421356,20 Z M19,12 L19,19 L12,19 L19,12 Z M14.4142136,18 L18,18 L18,14.4142136 L14.4142136,18 Z"/>
  </g>
</svg>
