<svg xmlns="http://www.w3.org/2000/svg" width="22" height="22" viewBox="0 0 22 22">
  <g fill="none" fill-rule="evenodd">
    <path fill="#6FBB54" d="M4,4 L18,4 C19.1,4 20,4.9 20,6 L20,17 C20,18.1 19.1,19 18,19 L4,19 C2.9,19 2,18.1 2,17 L2,6 C2,4.9 2.9,4 4,4 Z"/>
    <path fill="#D5E9E8" d="M6,6 L16,6 C17.1,6 18,6.9 18,8 L18,15 C18,16.1 17.1,17 16,17 L6,17 C4.9,17 4,16.1 4,15 L4,8 C4,6.9 4.9,6 6,6 Z"/>
    <polygon fill="#FFC83B" points="4 18 7.8 14.1 10.1 17.3 17.9 9.3 20.9 12.2 20.9 3 12.3 3.2 14.9 7.1 10.3 11.2 7.3 8.3 1 15"/>
    <path fill="#303646" fill-rule="nonzero" d="M12.8333333,4 L12.3,3.2 L20.9,3 L20.9,12.2 L20,11.33 L20,17 C20,18.1 19.1,19 18,19 L4,19 C2.9,19 2,18.1 2,17 L2,16 L1,15 L2,13.9365079 L2,6 C2,4.9 2.9,4 4,4 L12.8333333,4 Z M13.5,5 L4,5 C3.45228475,5 3,5.45228475 3,6 L3,12.8730159 L4,11.8095238 L4,8 C4,6.9 4.9,6 6,6 L14.1666667,6 L13.5,5 Z M19,10.3633333 L18,9.39666667 L18,15 C18,16.1 17.1,17 16,17 L10.3925,17 L10.1,17.3 L9.884375,17 L6,17 C5.69929499,17 5.41353602,16.9327429 5.15702327,16.8125287 L4,18 L3,17 C3,17.5477153 3.45228475,18 4,18 L18,18 C18.5477153,18 19,17.5477153 19,17 L19,10.3633333 Z M14.8333333,7 L6,7 C5.45228475,7 5,7.45228475 5,8 L5,10.7460317 L7.3,8.3 L10.3,11.2 L14.9,7.1 L14.8333333,7 Z M17,10.2230769 L11.3675,16 L16,16 C16.5477153,16 17,15.5477153 17,15 L17,10.2230769 Z M9.165625,16 L8.39270786,14.924637 L8.51622959,14.7978647 L8.28940456,14.7809107 L7.8,14.1 L7.21480966,14.7005901 L6.98798463,14.683636 L7.09128793,14.8273624 L5.94994836,15.9987372 C5.96653587,15.9995757 5.98322317,16 6,16 L9.165625,16 Z M3.99075717,16.5765436 L7.91600421,12.5480006 L10.2162365,15.7483238 L17.8791116,7.88896478 L19.9,9.84249026 L19.9,4.02352619 L14.1401676,4.15747578 L16.214068,7.26832638 L10.2723988,12.5641619 L7.33396616,9.72367703 L2.39279108,14.9785775 L3.99075717,16.5765436 Z"/>
  </g>
</svg>
