<svg xmlns="http://www.w3.org/2000/svg" width="22" height="22" viewBox="0 0 22 22">
  <g fill="none" fill-rule="evenodd">
    <polygon fill="#D5E9E8" points="2 6 20 6 20 21 2 21"/>
    <path fill="#ECBD4A" d="M16,3 L18.1,3 C19.1,3 20,3.9 20,5 C20,6.1 20,7 20,7 L2,7 C2,7 2,6.1 2,5 C2,3.9 2.8,3 3.9,3 L6,3 L6,1 L9,1 L9,3 L13,3 L13,1 L16,1 L16,3 Z"/>
    <path fill="#303646" d="M2,6 L20,6 L20,21 L2,21 L2,6 Z M3,7 L3,20 L19,20 L19,7 L3,7 Z"/>
    <path fill="#303646" fill-rule="nonzero" d="M10,13 L7,13 L7,12 L9.3,12 L6.5,8 L8,8 L10.5,11.6464466 L13,8 L14.5,8 L11.7,12 L14,12 L14,13 L11,13 L11,14 L14,14 L14,15 L11,15 L11,18 L10,18 L10,15 L7,15 L7,14 L10,14 L10,13 Z M16,3 L18.1,3 C19.1,3 20,3.9 20,5 L20,7 L2,7 L2,5 C2,3.9 2.8,3 3.9,3 L6,3 L6,1 L9,1 L9,3 L13,3 L13,1 L16,1 L16,3 Z M16,4 L16,5 L13,5 L13,4 L9,4 L9,5 L6,5 L6,4 L4,4 C3.4727862,4 3,4.41657904 3,5 L3,7 L2,7 L18.9852941,7 L18.9852941,5 C18.9852941,4.46065661 18.5274407,4 18.0588235,4 L16,4 Z M7,4 L8,4 L8,2 L7,2 L7,4 Z M14,4 L15,4 L15,2 L14,2 L14,4 Z"/>
  </g>
</svg>
