<svg xmlns="http://www.w3.org/2000/svg" width="22" height="22" viewBox="0 0 22 22">
  <g fill="none" fill-rule="evenodd">
    <path fill="#D5E9E8" d="M3,4 L19,4 C20.1,4 21,4.9 21,6 L21,17 C21,18.1 20.1,19 19,19 L3,19 C1.9,19 1,18.1 1,17 L1,6 C1,4.9 1.9,4 3,4 Z"/>
    <polygon fill="#FF716E" points="1 7 21 7 21 11 1 11"/>
    <path fill="#7DCBF3" d="M18,12 L20,12 C21.1,12 22,12.9 22,14 C22,15.1 21.1,16 20,16 L18,16 L18,18 L13,14 L18,10 L18,12 Z"/>
    <path fill="#303646" fill-rule="nonzero" d="M20,12 L20,11 L18,11 L18,12 L20,12 Z M20,16 L18,16 L18,18 L13,14 L16.75,11 L2,11 L2,17 C2,17.5477153 2.45228475,18 3,18 L19,18 C19.5477153,18 20,17.5477153 20,17 L20,16 Z M21,12.2697435 C21.5966642,12.6168606 22,13.2636152 22,14 C22,14.7363848 21.5966642,15.3831394 21,15.7302565 L21,17 C21,18.1 20.1,19 19,19 L3,19 C1.9,19 1,18.1 1,17 L1,6 C1,4.9 1.9,4 3,4 L19,4 C20.1,4 21,4.9 21,6 L21,12.2697435 Z M20,7 L20,6 C20,5.45228475 19.5477153,5 19,5 L3,5 C2.45228475,5 2,5.45228475 2,6 L2,7 L20,7 Z M2,8 L2,10 L20,10 L20,8 L2,8 Z M3,13 L7,13 L7,14 L3,14 L3,13 Z M3,15 L9,15 L9,16 L3,16 L3,15 Z M17,15 L20,15 C20.5477153,15 21,14.5477153 21,14 C21,13.4522847 20.5477153,13 20,13 L17,13 L17,12.0806248 L14.6007811,14 L17,15.9193752 L17,15 Z"/>
  </g>
</svg>
