<svg xmlns="http://www.w3.org/2000/svg" width="22" height="22" viewBox="0 0 22 22">
  <g fill="none" fill-rule="evenodd">
    <path fill="#D5E9E8" d="M18,13 L18,19 C18,20.1 17.1,21 16,21 L6,21 C4.9,21 4,20.1 4,19 L4,13 L1.67331671,13 C0.775561097,12.2 0.775561097,10.8 1.67331671,10 L9.45386534,1.6 C10.3516209,0.8 11.7481297,0.8 12.5461347,1.6 L20.3266833,10 C21.2244389,10.8 21.2244389,12.2 20.3266833,13 L18,13 Z"/>
    <polygon fill="#FFC83B" points="6 14 10 14 10 18 6 18"/>
    <polygon fill="#FF716E" points="6 8 10 8 10 12 6 12"/>
    <polygon fill="#7DCBF3" points="12 14 16 14 16 18 12 18"/>
    <path fill="#303646" fill-rule="nonzero" d="M18,13 L18,19 C18,20.1 17.1,21 16,21 L6,21 C4.9,21 4,20.1 4,19 L4,13 L1.67331671,13 C0.775561097,12.2 0.775561097,10.8 1.67331671,10 L9.45386534,1.6 C10.3516209,0.8 11.7481297,0.8 12.5461347,1.6 L20.3266833,10 C21.2244389,10.8 21.2244389,12.2 20.3266833,13 L18,13 Z M19.5930433,10.6795383 L11.8381457,2.30622345 C11.4241558,1.8911986 10.6301875,1.8911986 10.1875054,2.27953832 L2.33860683,10.7465849 C1.9716114,11.0736186 1.90293905,11.5988083 2.1325898,12 L5,12 L5,19 C5,19.5477153 5.45228475,20 6,20 L16,20 C16.5477153,20 17,19.5477153 17,19 L17,12 L18,12 L19.8667141,12 C20.0947251,11.5968497 20.0157525,11.0612115 19.5930433,10.6795383 Z M6,14 L10,14 L10,18 L6,18 L6,14 Z M6,8 L10,8 L10,12 L6,12 L6,8 Z M12,14 L16,14 L16,18 L12,18 L12,14 Z M7,15 L7,17 L9,17 L9,15 L7,15 Z M13,15 L13,17 L15,17 L15,15 L13,15 Z M7,9 L7,11 L9,11 L9,9 L7,9 Z M12,9 L14,9 L14,10 L12,10 L12,9 Z M12,11 L16,11 L16,12 L12,12 L12,11 Z"/>
  </g>
</svg>
