<svg style="position: absolute; width: 0; height: 0; overflow: hidden;" version="1.1" xmlns="http://www.w3.org/2000/svg" xmlns:xlink="http://www.w3.org/1999/xlink">
<defs>
<symbol id="icon-banji" viewBox="0 0 32 32">
<title>banji</title>
<path fill="#d5e9e8" style="fill: var(--color1, #d5e9e8)" d="M5.818 8.727h20.364c1.6 0 2.909 1.309 2.909 2.909v11.636c0 1.6-1.309 2.909-2.909 2.909h-3.055l0.145-2.909h-7.273l-0.873 2.909h-9.309c-1.6 0-2.909-1.309-2.909-2.909v-11.636c0-1.6 1.309-2.909 2.909-2.909z"></path>
<path fill="#d5e9e8" style="fill: var(--color1, #d5e9e8)" d="M7.273 1.455h4.364v17.455h-4.364z"></path>
<path fill="#76bf35" style="fill: var(--color2, #76bf35)" d="M1.455 24.727h29.091v5.818h-29.091z"></path>
<path fill="#ff9a2e" style="fill: var(--color3, #ff9a2e)" d="M10.182 1.455h16l-16 13.091z"></path>
<path fill="#303646" style="fill: var(--color4, #303646)" d="M10.909 1.455h15.273l-8.889 7.273h8.889c1.6 0 2.909 1.309 2.909 2.909v11.636c0 0.529-0.143 1.026-0.392 1.455h1.847v5.818h-29.091v-5.818h1.847c-0.249-0.429-0.392-0.926-0.392-1.455v-11.636c0-1.6 1.309-2.909 2.909-2.909h1.455v-7.273h3.636zM15.515 10.182l-3.879 3.174v5.554h-4.364v-8.727h-1.455c-0.797 0-1.455 0.658-1.455 1.455v11.636c0 0.797 0.658 1.455 1.455 1.455h8.227l0.873-2.909h9.884l-0.145 2.909h1.525c0.797 0 1.455-0.658 1.455-1.455v-11.636c0-0.797-0.658-1.455-1.455-1.455h-10.667zM15.564 24.727h7.636l0.073-1.455h-1.384l-0.069-0.073-0.004 0.073h-5.816l-0.436 1.455zM8.727 17.455h1.455v-14.545h-1.455v14.545zM2.909 26.182v2.909h26.182v-2.909h-26.182zM22.107 2.909h-10.471v8.567l10.471-8.567z"></path>
</symbol>
<symbol id="icon-banlizhongxin" viewBox="0 0 32 32">
<title>banlizhongxin</title>
<path fill="#d5e9e8" style="fill: var(--color1, #d5e9e8)" d="M4.403 1.455h10.614l8.256 7.855v15.418c0 1.6-1.327 2.909-2.948 2.909h-15.921c-1.622 0-2.948-1.309-2.948-2.909v-20.364c0-1.6 1.327-2.909 2.948-2.909z"></path>
<path fill="#ffc83b" style="fill: var(--color5, #ffc83b)" d="M14.545 1.455l8.727 8.727h-8.727z"></path>
<path fill="#ffc83b" style="fill: var(--color5, #ffc83b)" d="M30.545 10.182l-20.364 20.364h20.364z"></path>
<path fill="#d5e9e8" style="fill: var(--color1, #d5e9e8)" d="M27.636 17.455l-10.182 10.182h10.182z"></path>
<path fill="#303646" style="fill: var(--color4, #303646)" d="M21.818 18.909v-8.727h-7.273v-7.168l-0.11-0.104h-10.033c-0.823 0-1.494 0.662-1.494 1.455v20.364c0 0.792 0.671 1.455 1.494 1.455h10.143l7.273-7.273zM23.273 17.455l7.273-7.273v20.364h-20.364l2.909-2.909h-8.688c-1.622 0-2.948-1.309-2.948-2.909v-20.364c0-1.6 1.327-2.909 2.948-2.909h10.614l8.256 7.855v8.145zM16 8.727h3.761l-3.761-3.761v3.761zM5.818 8.727v-1.455h8.145v1.455h-8.145zM5.818 13.091v-1.455h6.109v1.455h-6.109zM5.818 17.455v-1.455h10.182v1.455h-10.182zM5.818 21.818v-1.455h10.182v1.455h-10.182zM13.693 29.091h15.398v-15.398l-15.398 15.398zM27.636 17.455v10.182h-10.182l10.182-10.182zM20.966 26.182h5.216v-5.216l-5.216 5.216z"></path>
</symbol>
<symbol id="icon-baobiao" viewBox="0 0 32 32">
<title>baobiao</title>
<path fill="#6fbb54" style="fill: var(--color6, #6fbb54)" d="M5.818 5.818h20.364c1.6 0 2.909 1.309 2.909 2.909v16c0 1.6-1.309 2.909-2.909 2.909h-20.364c-1.6 0-2.909-1.309-2.909-2.909v-16c0-1.6 1.309-2.909 2.909-2.909z"></path>
<path fill="#d5e9e8" style="fill: var(--color1, #d5e9e8)" d="M8.727 8.727h14.545c1.6 0 2.909 1.309 2.909 2.909v10.182c0 1.6-1.309 2.909-2.909 2.909h-14.545c-1.6 0-2.909-1.309-2.909-2.909v-10.182c0-1.6 1.309-2.909 2.909-2.909z"></path>
<path fill="#ffc83b" style="fill: var(--color5, #ffc83b)" d="M5.818 26.182l5.527-5.673 3.345 4.655 11.345-11.636 4.364 4.218v-13.382l-12.509 0.291 3.782 5.673-6.691 5.964-4.364-4.218-9.164 9.745z"></path>
<path fill="#303646" style="fill: var(--color4, #303646)" d="M18.667 5.818l-0.776-1.164 12.509-0.291v13.382l-1.309-1.265v8.247c0 1.6-1.309 2.909-2.909 2.909h-20.364c-1.6 0-2.909-1.309-2.909-2.909v-1.455l-1.455-1.455 1.455-1.547v-11.544c0-1.6 1.309-2.909 2.909-2.909h12.849zM19.636 7.273h-13.818c-0.797 0-1.455 0.658-1.455 1.455v9.997l1.455-1.547v-5.541c0-1.6 1.309-2.909 2.909-2.909h11.879l-0.97-1.455zM27.636 15.074l-1.455-1.406v8.15c0 1.6-1.309 2.909-2.909 2.909h-8.156l-0.425 0.436-0.314-0.436h-5.65c-0.437 0-0.853-0.098-1.226-0.273l-1.683 1.727-1.455-1.455c0 0.797 0.658 1.455 1.455 1.455h20.364c0.797 0 1.455-0.658 1.455-1.455v-9.653zM21.576 10.182h-12.848c-0.797 0-1.455 0.658-1.455 1.455v3.994l3.345-3.558 4.364 4.218 6.691-5.964-0.097-0.145zM24.727 14.87l-8.193 8.403h6.738c0.797 0 1.455-0.658 1.455-1.455v-6.948zM13.332 23.273l-1.124-1.564 0.18-0.184-0.33-0.025-0.712-0.99-0.851 0.874-0.33-0.025 0.15 0.209-1.66 1.704c0.024 0.001 0.048 0.002 0.073 0.002h4.605zM5.805 24.111l5.709-5.86 3.346 4.655 11.146-11.432 2.939 2.841v-8.464l-8.378 0.195 3.017 4.525-8.642 7.703-4.274-4.132-7.187 7.643 2.324 2.324z"></path>
</symbol>
<symbol id="icon-caiwu" viewBox="0 0 32 32">
<title>caiwu</title>
<path fill="#d5e9e8" style="fill: var(--color1, #d5e9e8)" d="M2.909 8.727h26.182v21.818h-26.182z"></path>
<path fill="#ecbd4a" style="fill: var(--color7, #ecbd4a)" d="M23.273 4.364h3.055c1.455 0 2.764 1.309 2.764 2.909s0 2.909 0 2.909h-26.182c0 0 0-1.309 0-2.909s1.164-2.909 2.764-2.909h3.055v-2.909h4.364v2.909h5.818v-2.909h4.364v2.909z"></path>
<path fill="#303646" style="fill: var(--color4, #303646)" d="M2.909 8.727h26.182v21.818h-26.182v-21.818zM4.364 10.182v18.909h23.273v-18.909h-23.273z"></path>
<path fill="#303646" style="fill: var(--color4, #303646)" d="M14.545 18.909h-4.364v-1.455h3.345l-4.073-5.818h2.182l3.636 5.304 3.636-5.304h2.182l-4.073 5.818h3.345v1.455h-4.364v1.455h4.364v1.455h-4.364v4.364h-1.455v-4.364h-4.364v-1.455h4.364v-1.455zM23.273 4.364h3.055c1.455 0 2.764 1.309 2.764 2.909v2.909h-26.182v-2.909c0-1.6 1.164-2.909 2.764-2.909h3.055v-2.909h4.364v2.909h5.818v-2.909h4.364v2.909zM23.273 5.818v1.455h-4.364v-1.455h-5.818v1.455h-4.364v-1.455h-2.909c-0.767 0-1.455 0.606-1.455 1.455v2.909h23.251v-2.909c0-0.784-0.666-1.455-1.348-1.455h-2.995zM10.182 5.818h1.455v-2.909h-1.455v2.909zM20.364 5.818h1.455v-2.909h-1.455v2.909z"></path>
</symbol>
<symbol id="icon-cikakaoqin" viewBox="0 0 32 32">
<title>cikakaoqin</title>
<path fill="#d5e9e8" style="fill: var(--color1, #d5e9e8)" d="M4.364 5.818h23.273c1.6 0 2.909 1.309 2.909 2.909v16c0 1.6-1.309 2.909-2.909 2.909h-23.273c-1.6 0-2.909-1.309-2.909-2.909v-16c0-1.6 1.309-2.909 2.909-2.909z"></path>
<path fill="#ff716e" style="fill: var(--color8, #ff716e)" d="M1.455 10.182h29.091v5.818h-29.091z"></path>
<path fill="#7dcbf3" style="fill: var(--color9, #7dcbf3)" d="M26.182 17.455h2.909c1.6 0 2.909 1.309 2.909 2.909s-1.309 2.909-2.909 2.909h-2.909v2.909l-7.273-5.818 7.273-5.818v2.909z"></path>
<path fill="#303646" style="fill: var(--color4, #303646)" d="M29.091 17.455v-1.455h-2.909v1.455h2.909zM29.091 23.273h-2.909v2.909l-7.273-5.818 5.455-4.364h-21.455v8.727c0 0.797 0.658 1.455 1.455 1.455h23.273c0.797 0 1.455-0.658 1.455-1.455v-1.455zM30.545 17.847c0.868 0.505 1.455 1.446 1.455 2.517s-0.587 2.012-1.455 2.517v1.847c0 1.6-1.309 2.909-2.909 2.909h-23.273c-1.6 0-2.909-1.309-2.909-2.909v-16c0-1.6 1.309-2.909 2.909-2.909h23.273c1.6 0 2.909 1.309 2.909 2.909v9.12zM29.091 10.182v-1.455c0-0.797-0.658-1.455-1.455-1.455h-23.273c-0.797 0-1.455 0.658-1.455 1.455v1.455h26.182zM2.909 11.636v2.909h26.182v-2.909h-26.182zM4.364 18.909h5.818v1.455h-5.818v-1.455zM4.364 21.818h8.727v1.455h-8.727v-1.455zM24.727 21.818h4.364c0.797 0 1.455-0.658 1.455-1.455s-0.658-1.455-1.455-1.455h-4.364v-1.337l-3.49 2.792 3.49 2.792v-1.337z"></path>
</symbol>
<symbol id="icon-jiaociakucun" viewBox="0 0 32 32">
<title>jiaociakucun</title>
<path fill="#d5e9e8" style="fill: var(--color1, #d5e9e8)" d="M26.182 18.909v8.727c0 1.6-1.309 2.909-2.909 2.909h-14.545c-1.6 0-2.909-1.309-2.909-2.909v-8.727h-3.384c-1.306-1.164-1.306-3.2 0-4.364l11.317-12.218c1.306-1.164 3.337-1.164 4.498 0l11.317 12.218c1.306 1.164 1.306 3.2 0 4.364h-3.384z"></path>
<path fill="#ffc83b" style="fill: var(--color5, #ffc83b)" d="M8.727 20.364h5.818v5.818h-5.818z"></path>
<path fill="#ff716e" style="fill: var(--color8, #ff716e)" d="M8.727 11.636h5.818v5.818h-5.818z"></path>
<path fill="#7dcbf3" style="fill: var(--color9, #7dcbf3)" d="M17.455 20.364h5.818v5.818h-5.818z"></path>
<path fill="#303646" style="fill: var(--color4, #303646)" d="M26.182 18.909v8.727c0 1.6-1.309 2.909-2.909 2.909h-14.545c-1.6 0-2.909-1.309-2.909-2.909v-8.727h-3.384c-1.306-1.164-1.306-3.2 0-4.364l11.317-12.218c1.306-1.164 3.337-1.164 4.498 0l11.317 12.218c1.306 1.164 1.306 3.2 0 4.364h-3.384zM28.499 15.534l-11.28-12.179c-0.602-0.604-1.757-0.604-2.401-0.039l-11.417 12.316c-0.534 0.476-0.634 1.24-0.3 1.823h4.171v10.182c0 0.797 0.658 1.455 1.455 1.455h14.545c0.797 0 1.455-0.658 1.455-1.455v-10.182h4.17c0.332-0.586 0.217-1.366-0.398-1.921zM8.727 20.364h5.818v5.818h-5.818v-5.818zM8.727 11.636h5.818v5.818h-5.818v-5.818zM17.455 20.364h5.818v5.818h-5.818v-5.818zM10.182 21.818v2.909h2.909v-2.909h-2.909zM18.909 21.818v2.909h2.909v-2.909h-2.909zM10.182 13.091v2.909h2.909v-2.909h-2.909zM17.455 13.091h2.909v1.455h-2.909v-1.455zM17.455 16h5.818v1.455h-5.818v-1.455z"></path>
</symbol>
<symbol id="icon-jishangke" viewBox="0 0 32 32">
<title>jishangke</title>
<path fill="#7dcbf3" style="fill: var(--color9, #7dcbf3)" d="M5.818 4.364h20.364c1.6 0 2.909 1.309 2.909 2.909v20.364c0 1.6-1.309 2.909-2.909 2.909h-20.364c-1.6 0-2.909-1.309-2.909-2.909v-20.364c0-1.6 1.309-2.909 2.909-2.909z"></path>
<path fill="#303646" style="fill: var(--color4, #303646)" d="M5.818 4.364h20.364c1.6 0 2.909 1.309 2.909 2.909v20.364c0 1.6-1.309 2.909-2.909 2.909h-20.364c-1.6 0-2.909-1.309-2.909-2.909v-20.364c0-1.6 1.309-2.909 2.909-2.909zM5.818 5.818c-0.797 0-1.455 0.658-1.455 1.455v20.364c0 0.797 0.658 1.455 1.455 1.455h20.364c0.797 0 1.455-0.658 1.455-1.455v-20.364c0-0.797-0.658-1.455-1.455-1.455h-20.364z"></path>
<path fill="#d5e9e8" style="fill: var(--color1, #d5e9e8)" d="M11.695 5.818h-1.513c-0.873 0-1.455 0.582-1.455 1.455-1.6 0-2.909 1.309-2.909 2.909v14.545c0 1.6 1.309 2.909 2.909 2.909h14.545c1.6 0 2.909-1.309 2.909-2.909v-14.545c0-1.6-1.309-2.909-2.909-2.909 0-0.873-0.582-1.455-1.455-1.455h-1.513c0.039-0.235 0.059-0.478 0.059-0.727 0-2-1.309-3.636-2.909-3.636h-2.909c-1.6 0-2.909 1.636-2.909 3.636 0 0.249 0.020 0.492 0.059 0.727z"></path>
<path fill="#303646" style="fill: var(--color4, #303646)" d="M17.774 21.818h4.044v1.455h-2.27l0.089 0.073-4.364 1.382 0.242-1.455h-5.333v-1.455h5.576l0.242-1.455 1.774 1.455zM11.695 5.818c-0.039-0.235-0.059-0.478-0.059-0.727 0-2 1.309-3.636 2.909-3.636h2.909c1.6 0 2.909 1.636 2.909 3.636 0 0.249-0.020 0.492-0.059 0.727h1.513c0.873 0 1.455 0.582 1.455 1.455 1.6 0 2.909 1.309 2.909 2.909v14.545c0 1.6-1.309 2.909-2.909 2.909h-14.545c-1.6 0-2.909-1.309-2.909-2.909v-14.545c0-1.6 1.309-2.909 2.909-2.909 0-0.873 0.582-1.455 1.455-1.455h1.513zM23.273 8.727v1.455c0 0.873-0.582 1.455-1.455 1.455h-11.636c-0.873 0-1.455-0.582-1.455-1.455v-1.455c-0.797 0-1.455 0.658-1.455 1.455v14.545c0 0.797 0.658 1.455 1.455 1.455h14.545c0.797 0 1.455-0.658 1.455-1.455v-14.545c0-0.797-0.658-1.455-1.455-1.455zM10.182 7.273v2.909h11.636v-2.909h-11.636zM14.545 2.909c-0.797 0-1.455 0.987-1.455 2.182s0.658 2.182 1.455 2.182h2.909c0.797 0 1.455-0.987 1.455-2.182s-0.658-2.182-1.455-2.182h-2.909zM10.182 14.545v-1.455h10.182v1.455h-10.182zM10.182 18.909v-1.455h8.727v1.455h-8.727z"></path>
<path fill="#ffc83b" style="fill: var(--color5, #ffc83b)" d="M23.273 8.727l5.818 4.364-9.455 10.182-3.636-2.909z"></path>
<path fill="#303646" style="fill: var(--color4, #303646)" d="M23.273 8.727l5.818 4.364-9.455 10.182-3.636-2.909 7.273-11.636zM23.667 10.841l-5.747 9.196 1.57 1.256 7.436-8.008-3.259-2.444z"></path>
</symbol>
<symbol id="icon-kecheng" viewBox="0 0 32 32">
<title>kecheng</title>
<path fill="#ff716e" style="fill: var(--color8, #ff716e)" d="M1.455 7.273h29.091v21.818h-29.091z"></path>
<path fill="#fff" style="fill: var(--color10, #fff)" d="M16.695 3.167c-1.948-1.101-7.318-3.46-12.331 0.472 0 0.867 0 23.997 0 23.997s6.571-6.222 11.636-1.684c0 0.98 0 1.595 0 1.684 0.216-0.373 0.438-0.71 0.667-1.012 0.269 0.302 0.532 0.639 0.788 1.012 0-0.094 0-0.795 0-1.903 4.352-4.156 10.182 1.903 10.182 1.903s0-23.113 0-23.985c-4.409-3.943-9.189-1.595-10.942-0.484z"></path>
<path fill="#d5e9e8" style="fill: var(--color1, #d5e9e8)" d="M14.545 21.818h4.364v5.818h-4.364z"></path>
<path fill="#ffc83b" style="fill: var(--color5, #ffc83b)" d="M7.273 4.364h7.273v5.818h-7.273z"></path>
<path fill="#303646" style="fill: var(--color4, #303646)" d="M14.545 24.948c-4.783-2.424-10.182 2.689-10.182 2.689v-18.909h-1.455v18.909h26.182v-18.909h-1.455v18.909c0 0-4.637-4.819-8.727-2.914v2.914h-4.364v-2.689zM14.545 23.355v-1.537h1.455v-14.428c0-1.766 0-2.493 0-2.945-0.339-0.193-0.718-0.385-1.132-0.567-2.804-1.232-5.696-1.411-8.371 0.080-0.228 0.127-0.455 0.267-0.679 0.418 0 0.526 0 1.16 0 3.247v16.259c0 0.321 0 0.607 0 0.864 0.012-0.007 0.024-0.015 0.036-0.022 2.464-1.506 5.013-2.243 7.507-1.722 0.405 0.085 0.8 0.202 1.184 0.352zM18.909 23.156c0.354-0.121 0.719-0.209 1.093-0.264 2.071-0.308 4.156 0.389 6.18 1.712 0-0.219 0-0.457 0-0.719v-16.249c0-2.163 0-2.764 0-3.303-0.245-0.189-0.493-0.358-0.743-0.507-2.229-1.333-4.637-1.14-7.006 0.032-0.357 0.177-0.685 0.364-0.979 0.551 0 0.448 0 1.162 0 2.993v14.418h1.455v1.338zM27.636 7.273h2.909v21.818h-29.091v-21.818h2.909v-3.634c5.013-3.932 10.383-1.573 12.331-0.472 1.753-1.111 6.533-3.459 10.942 0.484v3.622zM18.909 5.818h5.818v1.455h-5.818v-1.455zM18.909 8.727h5.818v1.455h-5.818v-1.455zM7.273 13.091h7.273v1.309h-7.273v-1.309zM7.273 16h7.273v1.309h-7.273v-1.309zM18.909 13.091h5.818v1.455h-5.818v-1.455zM18.909 16h5.818v1.455h-5.818v-1.455zM16 26.182h1.455v-2.909h-1.455v2.909zM7.273 4.364h7.273v5.818h-7.273v-5.818zM8.727 8.727h4.364v-2.909h-4.364v2.909z"></path>
</symbol>
<symbol id="icon-kechengbiao" viewBox="0 0 32 32">
<title>kechengbiao</title>
<path fill="#d5e9e8" style="fill: var(--color1, #d5e9e8)" d="M1.455 1.455h29.091v29.091h-29.091z"></path>
<path fill="#ff7d71" style="fill: var(--color11, #ff7d71)" d="M1.455 1.455h29.091v7.273h-29.091z"></path>
<path fill="#ecbd4a" style="fill: var(--color7, #ecbd4a)" d="M1.455 7.273h7.273v23.273h-7.273z"></path>
<path fill="#303646" style="fill: var(--color4, #303646)" d="M2.909 2.909v26.182h26.182v-26.182h-26.182zM1.455 1.455h29.091v29.091h-29.091v-29.091zM1.455 1.455h29.091v7.273h-29.091v-7.273zM2.909 2.909v4.364h26.182v-4.364h-26.182zM2.909 8.727v20.364h4.364v-20.364h-4.364zM1.455 7.273h7.273v23.273h-7.273v-23.273zM1.455 16v-1.455h29.091v1.455h-29.091zM2.909 23.273v-1.455h27.636v1.455h-27.636z"></path>
</symbol>
<symbol id="icon-paike" viewBox="0 0 32 32">
<title>paike</title>
<path fill="#d5e9e8" style="fill: var(--color1, #d5e9e8)" d="M7.273 1.455h20.364c1.6 0 2.909 1.309 2.909 2.909v7.273c0 1.6-1.309 2.909-2.909 2.909h-20.364c-1.6 0-2.909-1.309-2.909-2.909v-7.273c0-1.6 1.309-2.909 2.909-2.909zM4.364 17.455h20.364c1.6 0 2.909 1.309 2.909 2.909v7.273c0 1.6-1.309 2.909-2.909 2.909h-20.364c-1.6 0-2.909-1.309-2.909-2.909v-7.273c0-1.6 1.309-2.909 2.909-2.909z"></path>
<path fill="#76bf35" style="fill: var(--color2, #76bf35)" d="M7.241 1.455h7.337c1.582 0 2.877 1.309 2.877 2.909v7.273c0 1.6-1.295 2.909-2.877 2.909h-7.337c-1.582 0-2.877-1.309-2.877-2.909v-7.273c0-1.6 1.295-2.909 2.877-2.909z"></path>
<path fill="#ffc83b" style="fill: var(--color5, #ffc83b)" d="M4.332 17.455h7.337c1.582 0 2.877 1.309 2.877 2.909v7.273c0 1.6-1.295 2.909-2.877 2.909h-7.337c-1.582 0-2.877-1.309-2.877-2.909v-7.273c0-1.6 1.295-2.909 2.877-2.909z"></path>
<path fill="#303646" style="fill: var(--color4, #303646)" d="M8.016 17.455h16.711c1.6 0 2.909 1.309 2.909 2.909v7.273c0 1.6-1.309 2.909-2.909 2.909h-20.396c-1.582 0-2.877-1.309-2.877-2.909v-7.273c0-1.6 1.295-2.909 2.877-2.909h3.684zM14.157 18.909c0.247 0.429 0.388 0.926 0.388 1.455v7.273c0 0.529-0.141 1.026-0.388 1.455h10.57c0.797 0 1.455-0.658 1.455-1.455v-7.273c0-0.797-0.658-1.455-1.455-1.455h-10.57zM10.925 1.455h16.711c1.6 0 2.909 1.309 2.909 2.909v7.273c0 1.6-1.309 2.909-2.909 2.909h-20.396c-1.582 0-2.877-1.309-2.877-2.909v-7.273c0-1.6 1.295-2.909 2.877-2.909h3.684zM17.067 2.909c0.247 0.429 0.388 0.926 0.388 1.455v7.273c0 0.529-0.141 1.026-0.388 1.455h10.57c0.797 0 1.455-0.658 1.455-1.455v-7.273c0-0.797-0.658-1.455-1.455-1.455h-10.57zM7.241 2.909c-0.775 0-1.423 0.654-1.423 1.455v7.273c0 0.8 0.647 1.455 1.423 1.455h7.337c0.775 0 1.423-0.654 1.423-1.455v-7.273c0-0.8-0.647-1.455-1.423-1.455h-7.337zM4.332 18.909c-0.775 0-1.423 0.654-1.423 1.455v7.273c0 0.8 0.647 1.455 1.423 1.455h7.337c0.775 0 1.423-0.654 1.423-1.455v-7.273c0-0.8-0.647-1.455-1.423-1.455h-7.337zM18.909 7.273v-1.455h5.818v1.455h-5.818zM18.909 10.182v-1.455h7.273v1.455h-7.273zM16 23.273v-1.455h5.818v1.455h-5.818zM16 26.182v-1.455h7.273v1.455h-7.273z"></path>
</symbol>
<symbol id="icon-shouye" viewBox="0 0 32 32">
<title>shouye</title>
<path fill="#ff716e" style="fill: var(--color8, #ff716e)" d="M20.364 4.364h7.273v13.091h-7.273z"></path>
<path fill="#303646" style="fill: var(--color4, #303646)" d="M20.364 4.364h7.273v13.091h-7.273v-13.091zM21.818 16h4.364v-10.182h-4.364v10.182z"></path>
<path fill="#d5e9e8" style="fill: var(--color1, #d5e9e8)" d="M26.182 18.909v8.727c0 1.6-1.309 2.909-2.909 2.909h-14.545c-1.6 0-2.909-1.309-2.909-2.909v-8.727h-3.384c-1.306-1.164-1.306-3.2 0-4.364l11.317-12.218c1.306-1.164 3.337-1.164 4.498 0l11.317 12.218c1.306 1.164 1.306 3.2 0 4.364h-3.384z"></path>
<path fill="#ffc83b" style="fill: var(--color5, #ffc83b)" d="M11.636 18.909h8.727v11.636h-8.727z"></path>
<path fill="#303646" style="fill: var(--color4, #303646)" d="M20.364 29.091h2.909c0.797 0 1.455-0.658 1.455-1.455v-10.182h4.17c0.332-0.586 0.217-1.366-0.398-1.921l-11.28-12.179c-0.602-0.604-1.757-0.604-2.401-0.039l-11.417 12.316c-0.534 0.476-0.634 1.24-0.3 1.823h4.171v10.182c0 0.797 0.658 1.455 1.455 1.455h2.909v-10.182h8.727v10.182zM26.182 27.636c0 1.6-1.309 2.909-2.909 2.909h-14.545c-1.6 0-2.909-1.309-2.909-2.909v-8.727h-3.384c-1.306-1.164-1.306-3.2 0-4.364l11.317-12.218c1.306-1.164 3.337-1.164 4.498 0l11.317 12.218c1.306 1.164 1.306 3.2 0 4.364h-3.384v8.727zM13.091 20.364v8.727h5.818v-8.727h-5.818z"></path>
</symbol>
<symbol id="icon-xiaobaojia" viewBox="0 0 32 32">
<title>xiaobaojia</title>
<path fill="#d5e9e8" style="fill: var(--color1, #d5e9e8)" d="M26.717 27.606c2.205-0.251 3.829-2.042 3.829-4.334v-11.636l-14.545-8.727-14.545 8.727v11.636c0 2.473 1.891 4.364 4.364 4.364h16v2.909l4.899-2.939z"></path>
<path fill="#fff" style="fill: var(--color10, #fff)" d="M10.182 11.636h1.455c0.873 0 1.455 0.582 1.455 1.455v1.455c0 0.873-0.582 1.455-1.455 1.455h-1.455c-0.873 0-1.455-0.582-1.455-1.455v-1.455c0-0.873 0.582-1.455 1.455-1.455zM20.364 11.636h1.455c0.873 0 1.455 0.582 1.455 1.455v1.455c0 0.873-0.582 1.455-1.455 1.455h-1.455c-0.873 0-1.455-0.582-1.455-1.455v-1.455c0-0.873 0.582-1.455 1.455-1.455z"></path>
<path fill="#303646" style="fill: var(--color4, #303646)" d="M21.818 30.545v-2.909h-16c-2.473 0-4.364-1.891-4.364-4.364v-11.636l14.545-8.727 14.545 8.727v11.636c0 2.291-1.623 4.083-3.829 4.334l-4.899 2.939zM26.239 26.197l0.313-0.036c1.485-0.169 2.538-1.352 2.538-2.888v-10.813l-13.091-7.855-13.091 7.855v10.813c0 1.669 1.24 2.909 2.909 2.909h17.455v1.795l2.966-1.78zM10.182 17.455c0 2.603 2.304 4.364 5.818 4.364s5.818-1.76 5.818-4.364h1.455c0 3.636-3.2 5.818-7.273 5.818s-7.273-2.182-7.273-5.818h1.455zM10.182 11.636h1.455c0.873 0 1.455 0.582 1.455 1.455v1.455c0 0.873-0.582 1.455-1.455 1.455h-1.455c-0.873 0-1.455-0.582-1.455-1.455v-1.455c0-0.873 0.582-1.455 1.455-1.455zM20.364 11.636h1.455c0.873 0 1.455 0.582 1.455 1.455v1.455c0 0.873-0.582 1.455-1.455 1.455h-1.455c-0.873 0-1.455-0.582-1.455-1.455v-1.455c0-0.873 0.582-1.455 1.455-1.455zM20.364 13.091v1.455h1.455v-1.455h-1.455zM10.182 13.091v1.455h1.455v-1.455h-1.455z"></path>
</symbol>
<symbol id="icon-xiaobaoxiu" viewBox="0 0 32 32">
<title>xiaobaoxiu</title>
<path fill="#303646" style="fill: var(--color4, #303646)" d="M30.545 16l-7.273-13.091h-14.545l-7.273 13.091 7.273 13.091h14.545l7.273-13.091zM32.209 16l-8.081 14.545h-16.257l-8.081-14.545 8.081-14.545h16.257l8.081 14.545z"></path>
<path fill="#ff8057" style="fill: var(--color12, #ff8057)" d="M30.545 16l-7.273 13.091h-14.545l-7.273-13.091 7.273-13.091h14.545l7.273 13.091zM5.818 16l9.455 1.455 5.091 7.273-3.636-8.727 3.636-8.727-5.091 7.273-9.455 1.455z"></path>
<path fill="#ff6044" style="fill: var(--color13, #ff6044)" d="M23.273 2.909l-2.909 4.364 10.182 8.727z"></path>
<path fill="#f16557" style="fill: var(--color14, #f16557)" d="M23.273 2.909h-14.545l11.636 4.364z"></path>
<path fill="#f6c982" style="fill: var(--color15, #f6c982)" d="M5.818 16h-4.364l7.273-13.091z"></path>
<path fill="#ea6b5c" style="fill: var(--color16, #ea6b5c)" d="M8.727 29.091l-2.909-13.091h-4.364z"></path>
<path fill="#ee4855" style="fill: var(--color17, #ee4855)" d="M8.727 29.091l11.636-4.364 2.909 4.364z"></path>
<path fill="#f6664f" style="fill: var(--color18, #f6664f)" d="M30.545 16l-10.182 8.727 2.909 4.364z"></path>
<path fill="#fb924d" style="fill: var(--color19, #fb924d)" d="M20.364 7.273l-3.636 8.727h13.818z"></path>
<path fill="#f8b260" style="fill: var(--color20, #f8b260)" d="M16.727 16l3.636 8.727 10.182-8.727z"></path>
<path fill="#f46f42" style="fill: var(--color21, #f46f42)" d="M20.364 24.727l-11.636 4.364 6.545-11.636z"></path>
<path fill="#f88871" style="fill: var(--color22, #f88871)" d="M5.818 16l9.455 1.455-6.545 11.636z"></path>
<path fill="#fba346" style="fill: var(--color23, #fba346)" d="M15.273 14.545l-9.455 1.455 2.909-13.091z"></path>
<path fill="#ff8057" style="fill: var(--color12, #ff8057)" d="M8.727 2.909l6.545 11.636 5.091-7.273z"></path>
</symbol>
<symbol id="icon-xiaoneitongzhi" viewBox="0 0 32 32">
<title>xiaoneitongzhi</title>
<path fill="#ff716e" style="fill: var(--color8, #ff716e)" d="M16 1.455c2.473 0 4.364 1.891 4.364 4.364s-1.891 4.364-4.364 4.364c-2.473 0-4.364-1.891-4.364-4.364s1.891-4.364 4.364-4.364z"></path>
<path fill="#303646" style="fill: var(--color4, #303646)" d="M16 1.455c2.473 0 4.364 1.891 4.364 4.364s-1.891 4.364-4.364 4.364c-2.473 0-4.364-1.891-4.364-4.364s1.891-4.364 4.364-4.364zM16 2.909c-1.669 0-2.909 1.24-2.909 2.909s1.24 2.909 2.909 2.909c1.669 0 2.909-1.24 2.909-2.909s-1.24-2.909-2.909-2.909z"></path>
<path fill="#ffc83b" style="fill: var(--color5, #ffc83b)" d="M21.818 24.727c0 2.764-2.182 5.818-5.818 5.818s-5.818-2.909-5.818-5.818c1.164 0 10.473 0 11.636 0z"></path>
<path fill="#d5e9e8" style="fill: var(--color1, #d5e9e8)" d="M14.545 5.818h2.909c3.901 0 5.818 3.2 5.818 7.273v1.455c0 4.073 8.414 8.727 4.364 8.727h-23.273c-4.051 0 4.364-4.655 4.364-8.727v-1.455c0-4.073 1.768-7.273 5.818-7.273z"></path>
<path fill="#303646" style="fill: var(--color4, #303646)" d="M14.545 5.818h2.909c3.901 0 5.818 3.2 5.818 7.273v1.455c0 4.073 8.414 8.727 4.364 8.727h-23.273c-4.051 0 4.364-4.655 4.364-8.727v-1.455c0-4.073 1.768-7.273 5.818-7.273zM26.279 21.818c-0.293-0.308-1.066-1.12-1.345-1.424-1.364-1.485-2.241-2.684-2.734-3.949-0.249-0.638-0.382-1.271-0.382-1.9v-1.455c0-3.65-1.601-5.818-4.364-5.818h-2.909c-2.852 0-4.364 2.086-4.364 5.818v1.455c0 0.629-0.134 1.262-0.382 1.9-0.493 1.265-1.37 2.464-2.734 3.949-0.279 0.304-1.051 1.116-1.345 1.424h20.559zM21.818 24.727c0 2.764-2.182 5.818-5.818 5.818s-5.818-2.909-5.818-5.818h11.636zM19.636 26.182h-7.273c0 0.727 1.075 2.909 3.636 2.909 2.511 0 3.636-2.182 3.636-2.909z"></path>
</symbol>
<symbol id="icon-xiaoqu" viewBox="0 0 32 32">
<title>xiaoqu</title>
<path fill="#d5e9e8" style="fill: var(--color1, #d5e9e8)" d="M4.364 1.455h13.091c1.6 0 2.909 1.309 2.909 2.909v23.273c0 1.6-1.309 2.909-2.909 2.909h-13.091c-1.6 0-2.909-1.309-2.909-2.909v-23.273c0-1.6 1.309-2.909 2.909-2.909z"></path>
<path fill="#ffc83b" style="fill: var(--color5, #ffc83b)" d="M8.727 21.818h4.364c0.873 0 1.455 0.582 1.455 1.455v5.818c0 0.873-0.582 1.455-1.455 1.455h-4.364c-0.873 0-1.455-0.582-1.455-1.455v-5.818c0-0.873 0.582-1.455 1.455-1.455zM21.818 10.182h5.818c1.6 0 2.909 1.309 2.909 2.909v14.545c0 1.6-1.309 2.909-2.909 2.909h-5.818c-1.6 0-2.909-1.309-2.909-2.909v-14.545c0-1.6 1.309-2.909 2.909-2.909z"></path>
<path fill="#fff" style="fill: var(--color10, #fff)" d="M7.273 7.273h1.455c0.873 0 1.455 0.582 1.455 1.455v1.455c0 0.873-0.582 1.455-1.455 1.455h-1.455c-0.873 0-1.455-0.582-1.455-1.455v-1.455c0-0.873 0.582-1.455 1.455-1.455zM13.091 7.273h1.455c0.873 0 1.455 0.582 1.455 1.455v1.455c0 0.873-0.582 1.455-1.455 1.455h-1.455c-0.873 0-1.455-0.582-1.455-1.455v-1.455c0-0.873 0.582-1.455 1.455-1.455zM7.273 14.545h1.455c0.873 0 1.455 0.582 1.455 1.455v1.455c0 0.873-0.582 1.455-1.455 1.455h-1.455c-0.873 0-1.455-0.582-1.455-1.455v-1.455c0-0.873 0.582-1.455 1.455-1.455zM13.091 14.545h1.455c0.873 0 1.455 0.582 1.455 1.455v1.455c0 0.873-0.582 1.455-1.455 1.455h-1.455c-0.873 0-1.455-0.582-1.455-1.455v-1.455c0-0.873 0.582-1.455 1.455-1.455zM24.727 14.545h1.455c0.873 0 1.455 0.582 1.455 1.455v1.455c0 0.873-0.582 1.455-1.455 1.455h-1.455c-0.873 0-1.455-0.582-1.455-1.455v-1.455c0-0.873 0.582-1.455 1.455-1.455zM24.727 21.818h1.455c0.873 0 1.455 0.582 1.455 1.455v1.455c0 0.873-0.582 1.455-1.455 1.455h-1.455c-0.873 0-1.455-0.582-1.455-1.455v-1.455c0-0.873 0.582-1.455 1.455-1.455z"></path>
<path fill="#303646" style="fill: var(--color4, #303646)" d="M20.364 10.574c0.429-0.249 0.926-0.392 1.455-0.392h5.818c1.6 0 2.909 1.309 2.909 2.909v14.545c0 1.6-1.309 2.909-2.909 2.909h-5.818c-0.866 0-1.648-0.384-2.182-0.99-0.534 0.606-1.315 0.99-2.182 0.99h-13.091c-1.6 0-2.909-1.309-2.909-2.909v-23.273c0-1.6 1.309-2.909 2.909-2.909h13.091c1.6 0 2.909 1.309 2.909 2.909v6.211zM14.545 29.091h2.909c0.797 0 1.455-0.658 1.455-1.455v-23.273c0-0.797-0.658-1.455-1.455-1.455h-13.091c-0.797 0-1.455 0.658-1.455 1.455v23.273c0 0.797 0.658 1.455 1.455 1.455h2.909v-5.818c0-0.873 0.582-1.455 1.455-1.455h4.364c0.873 0 1.455 0.582 1.455 1.455v5.818zM8.727 23.273v5.818h4.364v-5.818h-4.364zM21.818 11.636c-0.797 0-1.455 0.658-1.455 1.455v14.545c0 0.797 0.658 1.455 1.455 1.455h5.818c0.797 0 1.455-0.658 1.455-1.455v-14.545c0-0.797-0.658-1.455-1.455-1.455h-5.818zM7.273 7.273h1.455c0.873 0 1.455 0.582 1.455 1.455v1.455c0 0.873-0.582 1.455-1.455 1.455h-1.455c-0.873 0-1.455-0.582-1.455-1.455v-1.455c0-0.873 0.582-1.455 1.455-1.455zM13.091 7.273h1.455c0.873 0 1.455 0.582 1.455 1.455v1.455c0 0.873-0.582 1.455-1.455 1.455h-1.455c-0.873 0-1.455-0.582-1.455-1.455v-1.455c0-0.873 0.582-1.455 1.455-1.455zM7.273 14.545h1.455c0.873 0 1.455 0.582 1.455 1.455v1.455c0 0.873-0.582 1.455-1.455 1.455h-1.455c-0.873 0-1.455-0.582-1.455-1.455v-1.455c0-0.873 0.582-1.455 1.455-1.455zM13.091 14.545h1.455c0.873 0 1.455 0.582 1.455 1.455v1.455c0 0.873-0.582 1.455-1.455 1.455h-1.455c-0.873 0-1.455-0.582-1.455-1.455v-1.455c0-0.873 0.582-1.455 1.455-1.455zM24.727 14.545h1.455c0.873 0 1.455 0.582 1.455 1.455v1.455c0 0.873-0.582 1.455-1.455 1.455h-1.455c-0.873 0-1.455-0.582-1.455-1.455v-1.455c0-0.873 0.582-1.455 1.455-1.455zM24.727 21.818h1.455c0.873 0 1.455 0.582 1.455 1.455v1.455c0 0.873-0.582 1.455-1.455 1.455h-1.455c-0.873 0-1.455-0.582-1.455-1.455v-1.455c0-0.873 0.582-1.455 1.455-1.455zM7.273 8.727v1.455h1.455v-1.455h-1.455zM13.091 8.727v1.455h1.455v-1.455h-1.455zM7.273 16v1.455h1.455v-1.455h-1.455zM13.091 16v1.455h1.455v-1.455h-1.455zM24.727 16v1.455h1.455v-1.455h-1.455zM24.727 23.273v1.455h1.455v-1.455h-1.455z"></path>
</symbol>
<symbol id="icon-xueyuan" viewBox="0 0 35 32">
<title>xueyuan</title>
<path fill="#ff716e" style="fill: var(--color8, #ff716e)" d="M1.455 12.364l16-6.545 16 6.545-10.182 5.091v7.273l-5.818 1.455-5.818-1.455v-7.273l5.818 2.909z"></path>
<path fill="#303646" style="fill: var(--color4, #303646)" d="M0 12.364l17.455-7.273 17.455 7.273-10.182 4.364v7.273l-7.273 2.909-7.273-2.909v-7.273l-10.182-4.364zM2.909 12.364l14.545 5.818v1.455l-5.818-2.182v5.818l5.818 2.182 5.818-2.182v-7.273l8.727-3.636-14.545-5.818-14.545 5.818z"></path>
</symbol>
<symbol id="icon-xueyuanmingce" viewBox="0 0 32 32">
<title>xueyuanmingce</title>
<path fill="#d5e9e8" style="fill: var(--color1, #d5e9e8)" d="M27.217 30.545h-17.078l-8.684-8.771v-17.104c0-1.754 1.447-3.216 3.184-3.216h22.723c1.737 0 3.184 1.462 3.184 3.216v22.805c-0.145 1.608-1.592 3.070-3.329 3.070z"></path>
<path fill="#7dccf3" style="fill: var(--color24, #7dccf3)" d="M8.475 10.701c-0.738-0.666-1.202-1.629-1.202-2.701 0-2.008 1.628-3.636 3.636-3.636s3.636 1.628 3.636 3.636c0 1.072-0.464 2.036-1.202 2.701 2.409 1.073 4.111 3.692 4.111 6.753h-13.091c0-3.061 1.702-5.68 4.111-6.753zM10.182 30.545l-8.727-8.727h8.727v8.727z"></path>
<path fill="#ff7d71" style="fill: var(--color11, #ff7d71)" d="M17.455 1.455h10.182v8.727l-5.091-2.909-5.091 2.909z"></path>
<path fill="#303646" style="fill: var(--color4, #303646)" d="M8.475 10.701c-0.738-0.666-1.202-1.629-1.202-2.701 0-2.008 1.628-3.636 3.636-3.636s3.636 1.628 3.636 3.636c0 1.072-0.464 2.036-1.202 2.701 2.409 1.073 4.111 3.692 4.111 6.753h-13.091c0-3.061 1.702-5.68 4.111-6.753zM27.636 2.933v7.249l-5.091-2.909-5.091 2.909v-7.273h-12.816c-0.93 0-1.73 0.807-1.73 1.762v16.505l0.636 0.642h6.637v6.704l0.563 0.569h16.471c0.925 0 1.797-0.828 1.874-1.615v-22.805c0-0.859-0.647-1.598-1.455-1.738zM5.818 26.182l-4.364-4.364h0.043l-0.043-0.044v-17.104c0-1.754 1.447-3.216 3.184-3.216h22.998c1.737 0 2.909 1.462 2.909 3.216v22.805c-0.145 1.608-1.592 3.070-3.329 3.070h-17.078l-4.32-4.364zM8.727 23.273h-3.761l3.761 3.761v-3.761zM26.182 2.909h-7.273v4.364l3.636-2.182 3.636 2.182v-4.364zM18.909 16v-1.455h5.818v1.455h-5.818zM18.909 20.364v-1.455h4.364v1.455h-4.364zM18.909 24.727v-1.455h7.273v1.455h-7.273zM10.909 10.182c1.205 0 2.182-0.977 2.182-2.182s-0.977-2.182-2.182-2.182c-1.205 0-2.182 0.977-2.182 2.182s0.977 2.182 2.182 2.182zM10.909 11.636c-2.345 0-4.362 1.836-4.931 4.364 0.849 0 1.354 0 2.91 0h1.532c3.025 0 3.628 0 5.419 0-0.569-2.527-2.586-4.364-4.931-4.364z"></path>
</symbol>
<symbol id="icon-yiduiyi" viewBox="0 0 32 32">
<title>yiduiyi</title>
<path fill="#3edcdd" style="fill: var(--color25, #3edcdd)" d="M10.846 6.992l-2.733 15.501-3.182-0.561 2.105-11.937c-0.452 0.27-1.041 0.481-1.767 0.632s-1.38 0.209-1.959 0.175l0.478-2.712c1.881-0.207 3.561-0.691 5.042-1.453l2.017 0.356z"></path>
<path fill="#ecbd4a" style="fill: var(--color7, #ecbd4a)" d="M22.024 11.154l-5.621 10.825-2.845-0.502-1.56-12.091 2.236 0.394 1.262 9.084c0.095-0.358 1.555-3.055 4.38-8.090l2.149 0.379z"></path>
<path fill="#303646" style="fill: var(--color4, #303646)" d="M10.846 6.992l-2.017-0.356c-1.481 0.762-3.161 1.247-5.042 1.453l-0.478 2.712c0.579 0.035 1.233-0.023 1.959-0.175s1.316-0.362 1.767-0.632l-2.105 11.937 3.182 0.561 2.733-15.501zM3.222 12.254l-1.628-0.098 0.951-5.393 1.084-0.119c1.709-0.188 3.218-0.623 4.535-1.301l0.436-0.224 3.932 0.693-3.238 18.366-6.047-1.066 1.937-10.987c-0.7 0.122-1.354 0.166-1.961 0.13z"></path>
<path fill="#303646" style="fill: var(--color4, #303646)" d="M18.695 9.090l5.73 1.010-6.823 13.567-5.73-1.010-1.772-15.082 5.73 1.010 0.675 4.55 2.19-4.045zM22.024 11.154l-2.149-0.379-4.38 8.090-1.349-9.1-2.149-0.379 1.56 12.091 2.865 0.505 5.602-10.828z"></path>
<path fill="#3edcdd" style="fill: var(--color25, #3edcdd)" d="M29.756 9.902l-2.733 15.501-3.182-0.561 2.105-11.937c-0.452 0.27-1.041 0.481-1.767 0.632s-1.38 0.209-1.959 0.175l0.478-2.712c1.881-0.207 3.561-0.691 5.042-1.453l2.017 0.356z"></path>
<path fill="#303646" style="fill: var(--color4, #303646)" d="M29.756 9.902l-2.017-0.356c-1.481 0.762-3.161 1.246-5.042 1.453l-0.478 2.712c0.579 0.035 1.233-0.023 1.959-0.175s1.316-0.362 1.767-0.632l-2.105 11.937 3.182 0.561 2.733-15.501zM22.131 15.164l-1.628-0.098 0.951-5.393 1.084-0.119c1.709-0.188 3.218-0.623 4.535-1.301l0.436-0.224 3.932 0.693-3.238 18.366-6.047-1.066 1.937-10.987c-0.7 0.122-1.354 0.166-1.961 0.13z"></path>
</symbol>
<symbol id="icon-yuangong" viewBox="0 0 32 32">
<title>yuangong</title>
<path fill="#d5e9e8" style="fill: var(--color1, #d5e9e8)" d="M4.364 17.455h2.103c0.502 0 0.968 0.258 1.233 0.684l6.624 10.599c0.144 0.231 0.221 0.498 0.221 0.771v0.31c0 0.402-0.326 0.727-0.727 0.727h-9.455c-0.803 0-1.455-0.651-1.455-1.455v-10.182c0-0.803 0.651-1.455 1.455-1.455z"></path>
<path fill="#d5e9e8" style="fill: var(--color1, #d5e9e8)" d="M27.636 17.455h-2.103c-0.502 0-0.968 0.258-1.233 0.684l-6.624 10.599c-0.144 0.231-0.221 0.498-0.221 0.771v0.31c0 0.402 0.326 0.727 0.727 0.727h9.455c0.803 0 1.455-0.651 1.455-1.455v-10.182c0-0.803-0.651-1.455-1.455-1.455z"></path>
<path fill="#ffc83b" style="fill: var(--color5, #ffc83b)" d="M10.184 16c5.818 3.782 11.636 0 11.636 0l-5.818 14.545c0 0-5.964-13.527-5.818-14.545z"></path>
<path fill="#7dccf3" style="fill: var(--color24, #7dccf3)" d="M16 16c-4.073 0-7.273-3.2-7.273-7.273s3.2-7.273 7.273-7.273c4.073 0 7.273 3.2 7.273 7.273s-3.2 7.273-7.273 7.273z"></path>
<path fill="#303646" style="fill: var(--color4, #303646)" d="M6.467 17.455c0.502 0 0.968 0.258 1.233 0.684l6.624 10.599c0.144 0.231 0.221 0.498 0.221 0.771v0.31c0 0.402-0.326 0.727-0.727 0.727h-9.455c-0.803 0-1.455-0.651-1.455-1.455v-10.182c0-0.803 0.651-1.455 1.455-1.455h2.103zM6.467 18.909h-2.103v10.182h8.467l-6.364-10.182zM25.533 17.455h2.103c0.803 0 1.455 0.651 1.455 1.455v10.182c0 0.803-0.651 1.455-1.455 1.455h-9.455c-0.402 0-0.727-0.326-0.727-0.727v-0.31c0-0.273 0.077-0.54 0.221-0.771l6.624-10.599c0.266-0.425 0.732-0.684 1.233-0.684zM25.533 18.909l-6.364 10.182h8.467v-10.182h-2.103zM10.184 16c5.818 3.782 11.636 0 11.636 0l-5.818 14.545c0 0-5.964-13.527-5.818-14.545zM14.208 22.681c0.112 0.268 0.112 0.268 0.225 0.536 0.484 1.153 0.996 2.352 1.513 3.552l3.237-8.093c-2.157 0.599-4.389 0.674-6.59 0.029 0.428 1.098 0.974 2.44 1.616 3.975zM16 16c-4.073 0-7.273-3.2-7.273-7.273s3.2-7.273 7.273-7.273c4.073 0 7.273 3.2 7.273 7.273s-3.2 7.273-7.273 7.273zM16 14.545c3.269 0 5.818-2.549 5.818-5.818s-2.549-5.818-5.818-5.818c-3.269 0-5.818 2.549-5.818 5.818s2.549 5.818 5.818 5.818z"></path>
</symbol>
<symbol id="icon-zixunben" viewBox="0 0 32 32">
<title>zixunben</title>
<path fill="#d5e9e8" style="fill: var(--color1, #d5e9e8)" d="M16 24.727h11.636c1.6 0 2.909-1.309 2.909-2.909v-16c0-1.6-1.309-2.909-2.909-2.909h-23.273c-1.6 0-2.909 1.309-2.909 2.909v16c0 1.6 1.309 2.909 2.909 2.909h3.491l4.073 5.818 4.073-5.818z"></path>
<path fill="#ff716e" style="fill: var(--color8, #ff716e)" d="M25.116 11.246c-0.151-0.363-0.366-0.688-0.64-0.963-0.53-0.534-1.225-0.828-1.958-0.828-0.835 0-1.617 0.38-2.156 1.046-0.54-0.666-1.322-1.046-2.156-1.046-0.731 0-1.427 0.296-1.959 0.834-0.275 0.278-0.491 0.603-0.641 0.967-0.156 0.378-0.234 0.778-0.23 1.19 0.007 0.893 0.391 1.726 1.053 2.287 0.030 0.025 0.058 0.050 0.087 0.076 0.145 0.13 0.565 0.514 1.097 1 0.911 0.833 2.044 1.869 2.508 2.281 0.068 0.059 0.154 0.093 0.242 0.093s0.176-0.033 0.242-0.093c0.336-0.299 1.030-0.934 1.767-1.607 0.723-0.66 1.47-1.344 1.907-1.736 0.677-0.564 1.067-1.406 1.070-2.311 0.001-0.414-0.078-0.814-0.234-1.19v0z"></path>
<path fill="#303646" style="fill: var(--color4, #303646)" d="M16 24.727l-4.073 5.818-4.073-5.818h-3.491c-1.6 0-2.909-1.309-2.909-2.909v-16c0-1.6 1.309-2.909 2.909-2.909h23.273c1.6 0 2.909 1.309 2.909 2.909v16c0 1.6-1.309 2.909-2.909 2.909h-11.636zM15.243 23.273h12.394c0.797 0 1.455-0.658 1.455-1.455v-16c0-0.797-0.658-1.455-1.455-1.455h-23.273c-0.797 0-1.455 0.658-1.455 1.455v16c0 0.797 0.658 1.455 1.455 1.455h4.248l3.315 4.736 3.315-4.736zM4.364 10.182v-1.455h5.818v1.455h-5.818zM4.364 14.545v-1.455h4.364v1.455h-4.364zM4.364 18.909v-1.455h7.273v1.455h-7.273zM25.161 9.693c-0.618-0.623-1.429-0.966-2.284-0.966-0.974 0-1.885 0.189-2.514 0.966-0.629-0.777-1.544-0.966-2.517-0.966-0.853 0-1.665 0.345-2.285 0.973-0.32 0.324-0.573 0.703-0.748 1.128-0.182 0.441-0.273 0.908-0.268 1.388 0.008 1.042 0.456 2.013 1.228 2.668 0.035 0.030 0.068 0.058 0.101 0.089 0.169 0.152 0.659 0.6 1.279 1.167 1.062 0.971 2.385 2.18 2.926 2.661 0.080 0.069 0.18 0.108 0.283 0.108 0.105 0 0.206-0.039 0.283-0.108 0.392-0.349 1.202-1.090 2.061-1.875 0.843-0.77 1.715-1.568 2.225-2.025 0.79-0.658 1.245-1.641 1.249-2.696 0.001-0.483-0.091-0.95-0.273-1.388-0.176-0.424-0.427-0.802-0.747-1.124zM22.545 10.182c0.549 0 1.107 0.136 1.507 0.53 0.209 0.206 0.376 0.451 0.493 0.728 0.12 0.286 0.181 0.591 0.181 0.906-0.001 0.349-4.364 4.381-4.364 4.381s-4.359-3.692-4.364-4.37c-0.002-0.314 0.058-0.619 0.178-0.905 0.118-0.279 0.285-0.525 0.495-0.733 0.403-0.399 0.963-0.537 1.508-0.537 0.644 0 1.964 1.455 2.182 1.455s1.536-1.455 2.182-1.455z"></path>
</symbol>
</defs>
</svg>
